<?xml version="1.0" encoding="UTF-8" standalone="no"?>
<svg
   xmlns:dc="http://purl.org/dc/elements/1.1/"
   xmlns:cc="http://creativecommons.org/ns#"
   xmlns:rdf="http://www.w3.org/1999/02/22-rdf-syntax-ns#"
   xmlns:svg="http://www.w3.org/2000/svg"
   xmlns="http://www.w3.org/2000/svg"
   xmlns:xlink="http://www.w3.org/1999/xlink"
   xmlns:sodipodi="http://sodipodi.sourceforge.net/DTD/sodipodi-0.dtd"
   xmlns:inkscape="http://www.inkscape.org/namespaces/inkscape"
   id="svg2"
   viewBox="0 0 526.87983 857.88319"
   version="1.1"
   sodipodi:docname="gnome.svg"
   width="526.87982"
   height="857.88336"
   inkscape:version="1.0.1 (3bc2e813f5, 2020-09-07)">
  <sodipodi:namedview
     pagecolor="#ffffff"
     bordercolor="#666666"
     borderopacity="1"
     objecttolerance="10"
     gridtolerance="10"
     guidetolerance="10"
     inkscape:pageopacity="0"
     inkscape:pageshadow="2"
     inkscape:window-width="1920"
     inkscape:window-height="1014"
     id="namedview104"
     showgrid="false"
     fit-margin-top="0"
     fit-margin-left="0"
     fit-margin-right="0"
     fit-margin-bottom="0"
     inkscape:pagecheckerboard="true"
     inkscape:zoom="0.77556958"
     inkscape:cx="475.17477"
     inkscape:cy="265.54285"
     inkscape:window-x="0"
     inkscape:window-y="0"
     inkscape:window-maximized="1"
     inkscape:current-layer="g4476"
     inkscape:document-rotation="0" />
  <defs
     id="defs4">
    <linearGradient
       id="linearGradient4332">
      <stop
         id="stop4334"
         style="stop-color:#ffffff"
         offset="0" />
      <stop
         id="stop4336"
         style="stop-color:#ffffff;stop-opacity:0"
         offset="1" />
    </linearGradient>
    <clipPath
       id="clipPath3344">
      <path
         id="path3346"
         style="fill:none;stroke:#000000;stroke-width:1px"
         d="m 145.78,424.88 c 0,0 19.648,26.62 51.973,48.804 32.325,22.184 32.325,29.79 63.382,38.029 31.057,8.2397 48.804,8.8735 67.819,4.4367 19.015,-4.4367 63.382,-126.76 38.029,-143.24 -25.353,-16.479 -140.07,-64.65 -142.61,-64.65 -2.5353,0 -57.678,39.297 -57.678,39.297 z" />
    </clipPath>
    <linearGradient
       id="linearGradient3356"
       y2="571.92999"
       xlink:href="#linearGradient4332"
       gradientUnits="userSpaceOnUse"
       x2="257.32999"
       y1="183.39"
       x1="203.46001" />
    <filter
       id="filter4166"
       color-interpolation-filters="sRGB">
      <feGaussianBlur
         id="feGaussianBlur4168"
         stdDeviation="0.94783103" />
    </filter>
    <linearGradient
       id="linearGradient4338"
       y2="631.06"
       xlink:href="#linearGradient4332"
       gradientUnits="userSpaceOnUse"
       x2="291"
       y1="619.09003"
       x1="314.29001" />
    <linearGradient
       id="linearGradient4342"
       y2="635.90997"
       xlink:href="#linearGradient4332"
       gradientUnits="userSpaceOnUse"
       x2="288.73999"
       y1="608.46002"
       x1="319.76999" />
    <linearGradient
       id="linearGradient4358"
       y2="629.20001"
       xlink:href="#linearGradient4332"
       gradientUnits="userSpaceOnUse"
       x2="286.92001"
       y1="610.34998"
       x1="311.82999" />
    <linearGradient
       id="linearGradient4362"
       y2="627.08002"
       xlink:href="#linearGradient4332"
       gradientUnits="userSpaceOnUse"
       x2="286.20001"
       y1="602.34003"
       x1="329.75" />
    <linearGradient
       inkscape:collect="always"
       xlink:href="#linearGradient4332"
       id="linearGradient106"
       gradientUnits="userSpaceOnUse"
       x1="203.46001"
       y1="183.39"
       x2="257.32999"
       y2="571.92999" />
    <linearGradient
       inkscape:collect="always"
       xlink:href="#linearGradient4332"
       id="linearGradient108"
       gradientUnits="userSpaceOnUse"
       x1="203.46001"
       y1="183.39"
       x2="257.32999"
       y2="571.92999" />
    <linearGradient
       inkscape:collect="always"
       xlink:href="#linearGradient4332"
       id="linearGradient110"
       gradientUnits="userSpaceOnUse"
       x1="203.46001"
       y1="183.39"
       x2="257.32999"
       y2="571.92999" />
    <linearGradient
       inkscape:collect="always"
       xlink:href="#linearGradient4332"
       id="linearGradient112"
       gradientUnits="userSpaceOnUse"
       x1="203.46001"
       y1="183.39"
       x2="257.32999"
       y2="571.92999" />
    <linearGradient
       inkscape:collect="always"
       xlink:href="#linearGradient4332"
       id="linearGradient114"
       gradientUnits="userSpaceOnUse"
       x1="203.46001"
       y1="183.39"
       x2="257.32999"
       y2="571.92999" />
    <linearGradient
       inkscape:collect="always"
       xlink:href="#linearGradient4332"
       id="linearGradient116"
       gradientUnits="userSpaceOnUse"
       x1="203.46001"
       y1="183.39"
       x2="257.32999"
       y2="571.92999" />
    <linearGradient
       inkscape:collect="always"
       xlink:href="#linearGradient4332"
       id="linearGradient118"
       gradientUnits="userSpaceOnUse"
       x1="319.76999"
       y1="608.46002"
       x2="288.73999"
       y2="635.90997" />
    <linearGradient
       inkscape:collect="always"
       xlink:href="#linearGradient4332"
       id="linearGradient120"
       gradientUnits="userSpaceOnUse"
       x1="319.76999"
       y1="608.46002"
       x2="288.73999"
       y2="635.90997" />
    <linearGradient
       inkscape:collect="always"
       xlink:href="#linearGradient4332"
       id="linearGradient122"
       gradientUnits="userSpaceOnUse"
       x1="319.76999"
       y1="608.46002"
       x2="288.73999"
       y2="635.90997" />
  </defs>
  <g
     id="layer1"
     transform="matrix(0.95189,0,0,0.95189,914.2252,-100.62547)">
    <g
       id="g4476"
       transform="matrix(3.1976,0,0,3.1976,-1631.9,-1767)">
      <g
         id="g3368"
         style="fill:#000000;filter:url(#filter4166)"
         transform="translate(53.875,261.77)">
        <path
           id="path3370"
           style="fill:#000000"
           d="m 193.14,462.39 c 57.203,54.51 40.863,51.531 58.655,108.09 4.1996,13.349 21.571,13.251 33.883,9.8455 19.48,-5.388 56.141,-22.371 -3.5045,-76.766 -14.103,-12.862 -14.064,-38.078 -1.566,-63.313 17.14,-34.608 -7.8877,-51.492 -31.691,-51.492 -23.8033,0 -78.684,51.809 -55.776,73.638 z" />
        <path
           id="path3372"
           style="fill:#000000"
           d="m 283.95,341.22 c 0,11.552 -6.243,20.916 -13.944,20.916 -7.7011,0 -13.944,-9.3644 -13.944,-20.916 0,-11.5516 6.243,-20.916 13.944,-20.916 7.7011,0 13.944,9.3644 13.944,20.916 z"
           transform="matrix(-0.90374,0.42809,0.42809,0.90374,343.06,-56.754)" />
        <path
           id="path3374"
           style="fill:#000000"
           d="m 283.95,341.22 c 0,11.552 -6.243,20.916 -13.944,20.916 -7.7011,0 -13.944,-9.3644 -13.944,-20.916 0,-11.5516 6.243,-20.916 13.944,-20.916 7.7011,0 13.944,9.3644 13.944,20.916 z"
           transform="matrix(-0.67263,0.31861,0.31861,0.67263,290.28,59.269)" />
        <path
           id="path3376"
           style="fill:#000000"
           d="m 283.95,341.22 c 0,11.552 -6.243,20.916 -13.944,20.916 -7.7011,0 -13.944,-9.3644 -13.944,-20.916 0,-11.5516 6.243,-20.916 13.944,-20.916 7.7011,0 13.944,9.3644 13.944,20.916 z"
           transform="matrix(-0.4993,0.23651,0.23651,0.4993,252.91,157.06)" />
        <path
           id="path3378"
           style="fill:#000000"
           d="m 283.95,341.22 c 0,11.552 -6.243,20.916 -13.944,20.916 -7.7011,0 -13.944,-9.3644 -13.944,-20.916 0,-11.5516 6.243,-20.916 13.944,-20.916 7.7011,0 13.944,9.3644 13.944,20.916 z"
           transform="matrix(-0.4993,0.23651,0.23651,0.4993,240.23,172.27)" />
        <path
           id="path3380"
           style="fill:#000000"
           d="m 283.95,341.22 c 0,11.552 -6.243,20.916 -13.944,20.916 -7.7011,0 -13.944,-9.3644 -13.944,-20.916 0,-11.5516 6.243,-20.916 13.944,-20.916 7.7011,0 13.944,9.3644 13.944,20.916 z"
           transform="matrix(-0.42707,0.2023,0.2023,0.42707,224.13,224.85)" />
      </g>
      <g
         id="g3064"
         style="fill:#000000"
         transform="translate(53.875,261.77)">
        <path
           id="path3066"
           style="fill:#000000"
           d="m 193.14,462.39 c 57.203,54.51 40.863,51.531 58.655,108.09 4.1996,13.349 21.571,13.251 33.883,9.8455 19.48,-5.388 56.141,-22.371 -3.5045,-76.766 -14.103,-12.862 -14.064,-38.078 -1.566,-63.313 17.14,-34.608 -7.8877,-51.492 -31.691,-51.492 -23.8033,0 -78.684,51.809 -55.776,73.638 z" />
        <path
           id="path3068"
           style="fill:#000000"
           d="m 283.95,341.22 c 0,11.552 -6.243,20.916 -13.944,20.916 -7.7011,0 -13.944,-9.3644 -13.944,-20.916 0,-11.5516 6.243,-20.916 13.944,-20.916 7.7011,0 13.944,9.3644 13.944,20.916 z"
           transform="matrix(-0.90374,0.42809,0.42809,0.90374,343.06,-56.754)" />
        <path
           id="path3070"
           style="fill:#000000"
           d="m 283.95,341.22 c 0,11.552 -6.243,20.916 -13.944,20.916 -7.7011,0 -13.944,-9.3644 -13.944,-20.916 0,-11.5516 6.243,-20.916 13.944,-20.916 7.7011,0 13.944,9.3644 13.944,20.916 z"
           transform="matrix(-0.67263,0.31861,0.31861,0.67263,290.28,59.269)" />
        <path
           id="path3072"
           style="fill:#000000"
           d="m 283.95,341.22 c 0,11.552 -6.243,20.916 -13.944,20.916 -7.7011,0 -13.944,-9.3644 -13.944,-20.916 0,-11.5516 6.243,-20.916 13.944,-20.916 7.7011,0 13.944,9.3644 13.944,20.916 z"
           transform="matrix(-0.4993,0.23651,0.23651,0.4993,252.91,157.06)" />
        <path
           id="path3074"
           style="fill:#000000"
           d="m 283.95,341.22 c 0,11.552 -6.243,20.916 -13.944,20.916 -7.7011,0 -13.944,-9.3644 -13.944,-20.916 0,-11.5516 6.243,-20.916 13.944,-20.916 7.7011,0 13.944,9.3644 13.944,20.916 z"
           transform="matrix(-0.4993,0.23651,0.23651,0.4993,240.23,172.27)" />
        <path
           id="path3076"
           style="fill:#000000"
           d="m 283.95,341.22 c 0,11.552 -6.243,20.916 -13.944,20.916 -7.7011,0 -13.944,-9.3644 -13.944,-20.916 0,-11.5516 6.243,-20.916 13.944,-20.916 7.7011,0 13.944,9.3644 13.944,20.916 z"
           transform="matrix(-0.42707,0.2023,0.2023,0.42707,224.13,224.85)" />
      </g>
      <g
         id="g3200"
         style="opacity:0.33;fill:#008080"
         transform="translate(53.875,261.77)">
        <path
           id="path3202"
           style="fill:#008080"
           d="m 193.14,462.39 c 57.203,54.51 40.863,51.531 58.655,108.09 4.1996,13.349 21.571,13.251 33.883,9.8455 19.48,-5.388 56.141,-22.371 -3.5045,-76.766 -14.103,-12.862 -14.064,-38.078 -1.566,-63.313 17.14,-34.608 -7.8877,-51.492 -31.691,-51.492 -23.8033,0 -78.684,51.809 -55.776,73.638 z" />
        <path
           id="path3204"
           style="fill:#008080"
           d="m 283.95,341.22 c 0,11.552 -6.243,20.916 -13.944,20.916 -7.7011,0 -13.944,-9.3644 -13.944,-20.916 0,-11.5516 6.243,-20.916 13.944,-20.916 7.7011,0 13.944,9.3644 13.944,20.916 z"
           transform="matrix(-0.90374,0.42809,0.42809,0.90374,343.06,-56.754)" />
        <path
           id="path3206"
           style="fill:#008080"
           d="m 283.95,341.22 c 0,11.552 -6.243,20.916 -13.944,20.916 -7.7011,0 -13.944,-9.3644 -13.944,-20.916 0,-11.5516 6.243,-20.916 13.944,-20.916 7.7011,0 13.944,9.3644 13.944,20.916 z"
           transform="matrix(-0.67263,0.31861,0.31861,0.67263,290.28,59.269)" />
        <path
           id="path3208"
           style="fill:#008080"
           d="m 283.95,341.22 c 0,11.552 -6.243,20.916 -13.944,20.916 -7.7011,0 -13.944,-9.3644 -13.944,-20.916 0,-11.5516 6.243,-20.916 13.944,-20.916 7.7011,0 13.944,9.3644 13.944,20.916 z"
           transform="matrix(-0.4993,0.23651,0.23651,0.4993,252.91,157.06)" />
        <path
           id="path3210"
           style="fill:#008080"
           d="m 283.95,341.22 c 0,11.552 -6.243,20.916 -13.944,20.916 -7.7011,0 -13.944,-9.3644 -13.944,-20.916 0,-11.5516 6.243,-20.916 13.944,-20.916 7.7011,0 13.944,9.3644 13.944,20.916 z"
           transform="matrix(-0.4993,0.23651,0.23651,0.4993,240.23,172.27)" />
        <path
           id="path3212"
           style="fill:#008080"
           d="m 283.95,341.22 c 0,11.552 -6.243,20.916 -13.944,20.916 -7.7011,0 -13.944,-9.3644 -13.944,-20.916 0,-11.5516 6.243,-20.916 13.944,-20.916 7.7011,0 13.944,9.3644 13.944,20.916 z"
           transform="matrix(-0.42707,0.2023,0.2023,0.42707,224.13,224.85)" />
      </g>
      <g
         id="g3302"
         style="fill:#000000"
         transform="translate(53.875,261.77)">
        <path
           id="path3304"
           style="fill:#000000"
           d="m 193.14,462.39 c 57.203,54.51 40.863,51.531 58.655,108.09 4.1996,13.349 21.571,13.251 33.883,9.8455 19.48,-5.388 56.141,-22.371 -3.5045,-76.766 -14.103,-12.862 -14.064,-38.078 -1.566,-63.313 17.14,-34.608 -7.8877,-51.492 -31.691,-51.492 -23.8033,0 -78.684,51.809 -55.776,73.638 z" />
        <path
           id="path3306"
           style="fill:#000000"
           d="m 283.95,341.22 c 0,11.552 -6.243,20.916 -13.944,20.916 -7.7011,0 -13.944,-9.3644 -13.944,-20.916 0,-11.5516 6.243,-20.916 13.944,-20.916 7.7011,0 13.944,9.3644 13.944,20.916 z"
           transform="matrix(-0.90374,0.42809,0.42809,0.90374,343.06,-56.754)" />
        <path
           id="path3308"
           style="fill:#000000"
           d="m 283.95,341.22 c 0,11.552 -6.243,20.916 -13.944,20.916 -7.7011,0 -13.944,-9.3644 -13.944,-20.916 0,-11.5516 6.243,-20.916 13.944,-20.916 7.7011,0 13.944,9.3644 13.944,20.916 z"
           transform="matrix(-0.67263,0.31861,0.31861,0.67263,290.28,59.269)" />
        <path
           id="path3310"
           style="fill:#000000"
           d="m 283.95,341.22 c 0,11.552 -6.243,20.916 -13.944,20.916 -7.7011,0 -13.944,-9.3644 -13.944,-20.916 0,-11.5516 6.243,-20.916 13.944,-20.916 7.7011,0 13.944,9.3644 13.944,20.916 z"
           transform="matrix(-0.4993,0.23651,0.23651,0.4993,252.91,157.06)" />
        <path
           id="path3312"
           style="fill:#000000"
           d="m 283.95,341.22 c 0,11.552 -6.243,20.916 -13.944,20.916 -7.7011,0 -13.944,-9.3644 -13.944,-20.916 0,-11.5516 6.243,-20.916 13.944,-20.916 7.7011,0 13.944,9.3644 13.944,20.916 z"
           transform="matrix(-0.4993,0.23651,0.23651,0.4993,240.23,172.27)" />
        <path
           id="path3314"
           style="fill:#000000"
           d="m 283.95,341.22 c 0,11.552 -6.243,20.916 -13.944,20.916 -7.7011,0 -13.944,-9.3644 -13.944,-20.916 0,-11.5516 6.243,-20.916 13.944,-20.916 7.7011,0 13.944,9.3644 13.944,20.916 z"
           transform="matrix(-0.42707,0.2023,0.2023,0.42707,224.13,224.85)" />
      </g>
      <g
         id="g3324"
         style="fill:url(#linearGradient3356)"
         transform="matrix(0.95196,0,0,0.95196,64.603,280.36)"
         clip-path="url(#clipPath3344)">
        <path
           id="path3326"
           style="fill:url(#linearGradient106)"
           d="m 193.14,462.39 c 57.203,54.51 40.863,51.531 58.655,108.09 4.1996,13.349 21.571,13.251 33.883,9.8455 19.48,-5.388 56.141,-22.371 -3.5045,-76.766 -14.103,-12.862 -14.064,-38.078 -1.566,-63.313 17.14,-34.608 -7.8877,-51.492 -31.691,-51.492 -23.8033,0 -78.684,51.809 -55.776,73.638 z" />
        <path
           id="path3328"
           style="fill:url(#linearGradient108)"
           d="m 283.95,341.22 c 0,11.552 -6.243,20.916 -13.944,20.916 -7.7011,0 -13.944,-9.3644 -13.944,-20.916 0,-11.5516 6.243,-20.916 13.944,-20.916 7.7011,0 13.944,9.3644 13.944,20.916 z"
           transform="matrix(-0.90374,0.42809,0.42809,0.90374,343.06,-56.754)" />
        <path
           id="path3330"
           style="fill:url(#linearGradient110)"
           d="m 283.95,341.22 c 0,11.552 -6.243,20.916 -13.944,20.916 -7.7011,0 -13.944,-9.3644 -13.944,-20.916 0,-11.5516 6.243,-20.916 13.944,-20.916 7.7011,0 13.944,9.3644 13.944,20.916 z"
           transform="matrix(-0.67263,0.31861,0.31861,0.67263,290.28,59.269)" />
        <path
           id="path3332"
           style="fill:url(#linearGradient112)"
           d="m 283.95,341.22 c 0,11.552 -6.243,20.916 -13.944,20.916 -7.7011,0 -13.944,-9.3644 -13.944,-20.916 0,-11.5516 6.243,-20.916 13.944,-20.916 7.7011,0 13.944,9.3644 13.944,20.916 z"
           transform="matrix(-0.4993,0.23651,0.23651,0.4993,252.91,157.06)" />
        <path
           id="path3334"
           style="fill:url(#linearGradient114)"
           d="m 283.95,341.22 c 0,11.552 -6.243,20.916 -13.944,20.916 -7.7011,0 -13.944,-9.3644 -13.944,-20.916 0,-11.5516 6.243,-20.916 13.944,-20.916 7.7011,0 13.944,9.3644 13.944,20.916 z"
           transform="matrix(-0.4993,0.23651,0.23651,0.4993,240.23,172.27)" />
        <path
           id="path3336"
           style="fill:url(#linearGradient116)"
           d="m 283.95,341.22 c 0,11.552 -6.243,20.916 -13.944,20.916 -7.7011,0 -13.944,-9.3644 -13.944,-20.916 0,-11.5516 6.243,-20.916 13.944,-20.916 7.7011,0 13.944,9.3644 13.944,20.916 z"
           transform="matrix(-0.42707,0.2023,0.2023,0.42707,224.13,224.85)" />
      </g>
      <path
         id="path4330"
         style="fill:url(#linearGradient4338)"
         d="m 306.77,627.07 c 0,8.0511 -3.8309,14.578 -8.5566,14.578 -4.7257,0 -8.5566,-6.5267 -8.5566,-14.578 0,-8.0511 3.8309,-14.578 8.5566,-14.578 4.7257,0 8.5566,6.5267 8.5566,14.578 z"
         transform="matrix(0.958,-0.30937,0.51666,0.67119,-311.93,293.06)" />
      <path
         id="path4340"
         style="fill:url(#linearGradient118)"
         d="m 306.77,627.07 c 0,8.0511 -3.8309,14.578 -8.5566,14.578 -4.7257,0 -8.5566,-6.5267 -8.5566,-14.578 0,-8.0511 3.8309,-14.578 8.5566,-14.578 4.7257,0 8.5566,6.5267 8.5566,14.578 z"
         transform="matrix(0.78309,-0.20754,0.38641,0.5615,-203.95,341.61)" />
      <path
         id="path4344"
         style="fill:url(#linearGradient120)"
         d="m 306.77,627.07 c 0,8.0511 -3.8309,14.578 -8.5566,14.578 -4.7257,0 -8.5566,-6.5267 -8.5566,-14.578 0,-8.0511 3.8309,-14.578 8.5566,-14.578 4.7257,0 8.5566,6.5267 8.5566,14.578 z"
         transform="matrix(0.49862,-0.077178,0.20249,0.37311,-22.485,437.25)" />
      <path
         id="path4348"
         style="fill:url(#linearGradient122)"
         d="m 306.77,627.07 c 0,8.0511 -3.8309,14.578 -8.5566,14.578 -4.7257,0 -8.5566,-6.5267 -8.5566,-14.578 0,-8.0511 3.8309,-14.578 8.5566,-14.578 4.7257,0 8.5566,6.5267 8.5566,14.578 z"
         transform="matrix(0.50233,-0.047407,0.17996,0.38448,-21.978,436.77)" />
      <path
         id="path4352"
         style="fill:url(#linearGradient4342)"
         d="m 306.77,627.07 c 0,8.0511 -3.8309,14.578 -8.5566,14.578 -4.7257,0 -8.5566,-6.5267 -8.5566,-14.578 0,-8.0511 3.8309,-14.578 8.5566,-14.578 4.7257,0 8.5566,6.5267 8.5566,14.578 z"
         transform="matrix(0.50201,-0.050626,0.18242,0.38332,-31.668,458.26)" />
      <path
         id="path4356"
         style="fill:url(#linearGradient4358)"
         d="m 306.77,627.07 c 0,8.0511 -3.8309,14.578 -8.5566,14.578 -4.7257,0 -8.5566,-6.5267 -8.5566,-14.578 0,-8.0511 3.8309,-14.578 8.5566,-14.578 4.7257,0 8.5566,6.5267 8.5566,14.578 z"
         transform="matrix(1.6715,-0.45634,0.90147,0.99005,-748.09,181.42)" />
      <path
         id="path4360"
         style="display:inline;fill:url(#linearGradient4362)"
         d="m 306.77,627.07 c 0,8.0511 -3.8309,14.578 -8.5566,14.578 -4.7257,0 -8.5566,-6.5267 -8.5566,-14.578 0,-8.0511 3.8309,-14.578 8.5566,-14.578 4.7257,0 8.5566,6.5267 8.5566,14.578 z"
         transform="matrix(-1.3132,2.1638,-1.9499,0.005471,1950.8,175.99)" />
    </g>
  </g>
  <metadata
     id="metadata101">
    <rdf:RDF>
      <cc:Work>
        <dc:format>image/svg+xml</dc:format>
        <dc:type
           rdf:resource="http://purl.org/dc/dcmitype/StillImage" />
        <cc:license
           rdf:resource="http://creativecommons.org/publicdomain/zero/1.0/" />
        <dc:publisher>
          <cc:Agent
             rdf:about="http://openclipart.org/">
            <dc:title>Openclipart</dc:title>
          </cc:Agent>
        </dc:publisher>
        <dc:title>Black Feet</dc:title>
        <dc:date>2010-08-05T18:09:58</dc:date>
        <dc:description>Black glossy feet</dc:description>
        <dc:source>https://openclipart.org/detail/77743/black-feet-by-inky2010-77743</dc:source>
        <dc:creator>
          <cc:Agent>
            <dc:title>inky2010</dc:title>
          </cc:Agent>
        </dc:creator>
        <dc:subject>
          <rdf:Bag>
            <rdf:li>black</rdf:li>
            <rdf:li>feet</rdf:li>
            <rdf:li>footprint</rdf:li>
            <rdf:li>footprints</rdf:li>
            <rdf:li>gloss</rdf:li>
            <rdf:li>glossy</rdf:li>
            <rdf:li>icon</rdf:li>
          </rdf:Bag>
        </dc:subject>
      </cc:Work>
      <cc:License
         rdf:about="http://creativecommons.org/publicdomain/zero/1.0/">
        <cc:permits
           rdf:resource="http://creativecommons.org/ns#Reproduction" />
        <cc:permits
           rdf:resource="http://creativecommons.org/ns#Distribution" />
        <cc:permits
           rdf:resource="http://creativecommons.org/ns#DerivativeWorks" />
      </cc:License>
    </rdf:RDF>
  </metadata>
</svg>
