<?xml version="1.0" encoding="UTF-8" standalone="no"?>
<svg
   xmlns:dc="http://purl.org/dc/elements/1.1/"
   xmlns:cc="http://creativecommons.org/ns#"
   xmlns:rdf="http://www.w3.org/1999/02/22-rdf-syntax-ns#"
   xmlns:svg="http://www.w3.org/2000/svg"
   xmlns="http://www.w3.org/2000/svg"
   xmlns:sodipodi="http://sodipodi.sourceforge.net/DTD/sodipodi-0.dtd"
   xmlns:inkscape="http://www.inkscape.org/namespaces/inkscape"
   id="svg1"
   inkscape:version="1.0.1 (3bc2e813f5, 2020-09-07)"
   viewBox="0 0 53.211819 58.75"
   sodipodi:version="0.32"
   _SVGFile__filename="oldscale/actions/about_kde.svg"
   version="1.0"
   y="0"
   x="0"
   sodipodi:docname="kde.svg"
   width="53.211819"
   height="58.75">
  <defs
     id="defs11" />
  <sodipodi:namedview
     id="base"
     bordercolor="#666666"
     inkscape:window-x="0"
     inkscape:window-y="0"
     pagecolor="#ffffff"
     inkscape:zoom="5.1337262"
     inkscape:pageshadow="2"
     borderopacity="1.0"
     inkscape:current-layer="svg1"
     inkscape:cx="7.3651319"
     inkscape:cy="19.355652"
     inkscape:window-width="1020"
     inkscape:pageopacity="0.0"
     inkscape:window-height="691"
     inkscape:document-rotation="0"
     showgrid="false"
     fit-margin-top="0"
     fit-margin-left="0"
     fit-margin-right="0"
     fit-margin-bottom="0"
     inkscape:pagecheckerboard="true"
     inkscape:window-maximized="0" />
  <path
     id="path1091"
     style="fill:none;stroke:#ffffff;stroke-width:5;stroke-linejoin:round"
     d="M 24.577899,32.665 V 5.946 c 0,-0.9844 0.32,-1.8049 0.962,-2.4614 0.641,-0.6564 1.469,-0.9846 2.484,-0.9846 1.014,0 1.835,0.3058 2.461,0.9175 0.642,0.6117 0.963,1.4546 0.963,2.5287 v 9.9808 l 11.278,-12.129 c 0.791,-0.8654 1.678,-1.298 2.663,-1.298 0.91,0 1.701,0.3133 2.372,0.9399 0.686,0.6116 1.029,1.4172 1.029,2.4168 0,0.5669 -0.179,1.1263 -0.537,1.6783 -0.358,0.5371 -0.932,1.201 -1.723,1.992 l -8.66,8.615 10.585,11.167 c 0.611,0.582 1.081,1.149 1.41,1.7 0.343,0.538 0.514,1.134 0.514,1.791 0,1.044 -0.343,1.842 -1.029,2.394 -0.686,0.537 -1.537,0.806 -2.551,0.806 -0.597,0 -1.141,-0.164 -1.634,-0.493 -0.477,-0.328 -1.089,-0.88 -1.835,-1.656 l -11.882,-12.979 v 11.793 c 0,0.94 -0.321,1.731 -0.963,2.373 -0.641,0.641 -1.462,0.962 -2.461,0.962 -1,0 -1.828,-0.306 -2.484,-0.918 -0.642,-0.611 -0.962,-1.417 -0.962,-2.417 z" />
  <path
     id="path1092"
     style="fill:none;stroke:#ffffff;stroke-width:5;stroke-linecap:round;stroke-linejoin:round"
     d="m 7.7408992,45.682 4.4009998,4.612 7.127,-4.821 5.66,2.515 1.887,8.262 6.078,-0.056 1.677,-8.477 5.66,-2.244 7.127,4.611 3.354,-4.611 -8.088,-7.633 c -20.731,19.014 -38.6459998,-10.292 -20.839,-22.552 v -4.402 l -2.096,1.048 -6.498,-4.1309 -4.4889998,3.6859 4.0689998,6.943 -2.305,5.66 -7.9413998,1.319 -0.0245,6.017 8.1748998,2.097 2.254,5.502 z" />
  <g
     id="g1553"
     style="fill:#004189"
     transform="matrix(0.96018,0,0,0.96018,-1.2135008,0.29169)">
    <path
       id="path829"
       style="fill:#000000"
       transform="matrix(1.9888,0,0,1.9888,40.429,22.143)"
       d="m -6.8226,5.8194 v -13.992 c 0,-0.5158 0.168,-0.9455 0.504,-1.2893 0.3359,-0.3437 0.7695,-0.5156 1.3007,-0.5156 0.5313,0 0.961,0.1602 1.2891,0.4805 0.3359,0.3203 0.5039,0.7617 0.5039,1.3242 v 5.2265 l 5.9063,-6.3515 c 0.414,-0.4531 0.8789,-0.6797 1.3945,-0.6797 0.4765,0 0.8906,0.1641 1.2422,0.4922 0.3593,0.3203 0.539,0.7422 0.539,1.2656 0,0.2969 -0.0937,0.5899 -0.2812,0.8789 -0.1875,0.2813 -0.4883,0.6289 -0.9024,1.043 l -4.5351,4.5117 5.543,5.8477 c 0.3203,0.3046 0.5664,0.6015 0.7382,0.8906 0.1797,0.2812 0.2696,0.5937 0.2696,0.9375 0,0.5469 -0.1797,0.9648 -0.5391,1.2539 C 5.7907,7.4248 5.3454,7.5655 4.8142,7.5655 4.5017,7.5655 4.2165,7.4795 3.9587,7.3077 3.7087,7.1358 3.3884,6.8467 2.9978,6.4405 l -6.2227,-6.7969 v 6.1758 c 0,0.4922 -0.168,0.9062 -0.5039,1.2422 -0.3359,0.3359 -0.7656,0.5039 -1.2891,0.5039 -0.5234,0 -0.957,-0.1602 -1.3007,-0.4805 -0.336,-0.3203 -0.504,-0.7422 -0.504,-1.2656 z" />
    <path
       id="path705"
       style="fill:#000000;fill-rule:evenodd;stroke-width:1.293;stroke-linecap:round;stroke-linejoin:round"
       transform="matrix(0.29003,0,0,0.29003,-1.4462,-5.265)"
       d="m 37.139,181.15 15.807,16.56 25.593,-17.32 20.323,9.04 6.778,29.67 21.83,-0.21 6.02,-30.44 20.32,-8.06 25.59,16.56 12.05,-16.56 -29.05,-27.4 C 87.959,221.26 23.63,116.03 87.571,72.004 V 56.196 L 80.044,59.96 56.71,45.126 40.591,58.363 l 14.613,24.931 -8.279,20.326 -28.516,4.73 -0.088,21.61 29.356,7.53 8.092,19.76 z" />
  </g>
  <metadata
     id="metadata8">
    <rdf:RDF>
      <cc:Work>
        <dc:format>image/svg+xml</dc:format>
        <dc:type
           rdf:resource="http://purl.org/dc/dcmitype/StillImage" />
        <cc:license
           rdf:resource="http://creativecommons.org/publicdomain/zero/1.0/" />
        <dc:publisher>
          <cc:Agent
             rdf:about="http://openclipart.org/">
            <dc:title>Openclipart</dc:title>
          </cc:Agent>
        </dc:publisher>
        <dc:title></dc:title>
      </cc:Work>
      <cc:License
         rdf:about="http://creativecommons.org/publicdomain/zero/1.0/">
        <cc:permits
           rdf:resource="http://creativecommons.org/ns#Reproduction" />
        <cc:permits
           rdf:resource="http://creativecommons.org/ns#Distribution" />
        <cc:permits
           rdf:resource="http://creativecommons.org/ns#DerivativeWorks" />
      </cc:License>
    </rdf:RDF>
  </metadata>
</svg>
