<?xml version="1.0" encoding="UTF-8" standalone="no"?>
<svg
   xmlns:dc="http://purl.org/dc/elements/1.1/"
   xmlns:cc="http://creativecommons.org/ns#"
   xmlns:rdf="http://www.w3.org/1999/02/22-rdf-syntax-ns#"
   xmlns:svg="http://www.w3.org/2000/svg"
   xmlns="http://www.w3.org/2000/svg"
   xmlns:xlink="http://www.w3.org/1999/xlink"
   xmlns:sodipodi="http://sodipodi.sourceforge.net/DTD/sodipodi-0.dtd"
   xmlns:inkscape="http://www.inkscape.org/namespaces/inkscape"
   width="72.002991"
   height="51.325111"
   id="svg3278"
   version="1.1"
   inkscape:version="1.0.1 (3bc2e813f5, 2020-09-07)"
   sodipodi:docname="mail.svg">
  <defs
     id="defs3280">
    <linearGradient
       id="linearGradient21392"
       y2="1006.7"
       xlink:href="#linearGradient20935"
       gradientUnits="userSpaceOnUse"
       y1="1038.6"
       x2="-321.88"
       x1="-321.88"
       inkscape:collect="always" />
    <linearGradient
       id="linearGradient20935"
       inkscape:collect="always">
      <stop
         id="stop20937"
         style="stop-color:#072e97"
         offset="0" />
      <stop
         id="stop20939"
         style="stop-color:#1588e2"
         offset="1" />
    </linearGradient>
    <linearGradient
       id="linearGradient21394"
       y2="1014.7"
       gradientUnits="userSpaceOnUse"
       y1="1030.6"
       x2="-320.76001"
       x1="-320.76001"
       inkscape:collect="always">
      <stop
         id="stop20929"
         style="stop-color:#6dc0f2"
         offset="0" />
      <stop
         id="stop20931"
         style="stop-color:#c1e3fc"
         offset="1" />
    </linearGradient>
    <linearGradient
       y2="1014.7"
       x2="-320.76001"
       y1="1030.6"
       x1="-320.76001"
       gradientUnits="userSpaceOnUse"
       id="linearGradient3276"
       xlink:href="#linearGradient21394"
       inkscape:collect="always" />
    <linearGradient
       id="linearGradient21422"
       y2="1006.7"
       xlink:href="#linearGradient20935-1"
       gradientUnits="userSpaceOnUse"
       y1="1038.6"
       gradientTransform="matrix(1.4972,0,0,1.4972,294.53,-534.76)"
       x2="-321.88"
       x1="-321.88"
       inkscape:collect="always" />
    <linearGradient
       id="linearGradient20935-1"
       inkscape:collect="always">
      <stop
         id="stop20937-7"
         style="stop-color:#072e97"
         offset="0" />
      <stop
         id="stop20939-4"
         style="stop-color:#1588e2"
         offset="1" />
    </linearGradient>
    <linearGradient
       y2="1006.7"
       x2="-321.88"
       y1="1038.6"
       x1="-321.88"
       gradientTransform="matrix(1.4972,0,0,1.4972,294.53,-534.76)"
       gradientUnits="userSpaceOnUse"
       id="linearGradient3348"
       xlink:href="#linearGradient20935-1"
       inkscape:collect="always" />
    <linearGradient
       id="linearGradient21041"
       y2="1081"
       xlink:href="#linearGradient21019"
       gradientUnits="userSpaceOnUse"
       y1="1108.8"
       gradientTransform="translate(328.5,23.5)"
       x2="-632.87"
       x1="-632.87"
       inkscape:collect="always" />
    <linearGradient
       id="linearGradient21019"
       inkscape:collect="always">
      <stop
         id="stop21021"
         style="stop-color:#ce9150"
         offset="0" />
      <stop
         id="stop21023"
         style="stop-color:#d3bd68"
         offset="1" />
    </linearGradient>
    <linearGradient
       id="linearGradient21025"
       y2="1081.2"
       xlink:href="#linearGradient21019"
       gradientUnits="userSpaceOnUse"
       y1="1108.9"
       gradientTransform="translate(328.5,23.5)"
       x2="-650.15002"
       x1="-650.15002"
       inkscape:collect="always" />
    <linearGradient
       id="linearGradient21033"
       y2="1081.1"
       xlink:href="#linearGradient21019"
       gradientUnits="userSpaceOnUse"
       y1="1109.1"
       gradientTransform="translate(328.5,23.5)"
       x2="-648.45001"
       x1="-648.45001"
       inkscape:collect="always" />
    <linearGradient
       y2="1081.1"
       x2="-648.45001"
       y1="1109.1"
       x1="-648.45001"
       gradientTransform="translate(328.5,23.5)"
       gradientUnits="userSpaceOnUse"
       id="linearGradient3506"
       xlink:href="#linearGradient21019"
       inkscape:collect="always" />
  </defs>
  <sodipodi:namedview
     id="base"
     pagecolor="#ffffff"
     bordercolor="#666666"
     borderopacity="1.0"
     inkscape:pageopacity="0.0"
     inkscape:pageshadow="2"
     inkscape:zoom="3.959798"
     inkscape:cx="115.07587"
     inkscape:cy="43.902622"
     inkscape:document-units="px"
     inkscape:current-layer="layer1"
     showgrid="false"
     fit-margin-top="0"
     fit-margin-left="0"
     fit-margin-right="0"
     fit-margin-bottom="0"
     inkscape:window-width="1920"
     inkscape:window-height="1014"
     inkscape:window-x="0"
     inkscape:window-y="0"
     inkscape:window-maximized="1"
     inkscape:document-rotation="0"
     inkscape:pagecheckerboard="true" />
  <metadata
     id="metadata3283">
    <rdf:RDF>
      <cc:Work
         rdf:about="">
        <dc:format>image/svg+xml</dc:format>
        <dc:type
           rdf:resource="http://purl.org/dc/dcmitype/StillImage" />
        <dc:title></dc:title>
      </cc:Work>
    </rdf:RDF>
  </metadata>
  <g
     inkscape:label="Layer 1"
     inkscape:groupmode="layer"
     id="layer1"
     transform="translate(-648.26012,-681.17499)">
    <g
       id="g21065"
       inkscape:export-ydpi="90"
       inkscape:export-xdpi="90"
       transform="matrix(1.7958999,0,0,1.7958999,1246.1152,-1302.576)">
      <rect
         id="rect20985"
         style="opacity:0.34241;fill:#000000"
         rx="0"
         ry="0"
         height="27.778999"
         width="39.333"
         y="1105.4"
         x="-332.14001" />
      <rect
         id="rect20987"
         style="fill:url(#linearGradient21041)"
         rx="0"
         ry="0"
         height="27.778999"
         width="39.333"
         y="1104.6"
         x="-332.89999" />
      <path
         id="path21006"
         d="m -314.37,1117.5 c -0.61405,-0.01 -1.2557,0.1217 -2.6562,1.125 l -14.449,12.225 c -0.56391,0.4771 -1.0715,0.8664 -1.3793,1.5005 l 38.672,0.056 -16.281,-13.781 c -1.3148,-1.1133 -1.9819,-1.1628 -2.625,-1.125 -0.21436,0.012 -0.42714,0.031 -0.65625,0.031 -0.22911,0 -0.42032,-0.029 -0.625,-0.031 z"
         sodipodi:nodetypes="ccsccccscc"
         style="fill:#dfb674"
         inkscape:connector-curvature="0" />
      <path
         id="path21011"
         d="m -313.16,1117.5 c -0.61405,-0.01 -1.2557,0.1217 -2.6562,1.125 l -15.812,13.156 v 0.4688 l 38.062,0.1562 v -0.5 l -15.688,-13.281 c -1.3148,-1.1133 -1.9819,-1.1628 -2.625,-1.125 -0.21436,0.012 -0.42714,0.031 -0.65625,0.031 -0.22911,0 -0.42032,-0.029 -0.625,-0.031 z"
         style="opacity:0.34241;fill:#000000"
         inkscape:connector-curvature="0" />
      <path
         id="path20999"
         style="fill:url(#linearGradient21025)"
         d="m -332.9,1132.4 16.377,-13.754 c 1.8674,-1.3375 2.3728,-1.103 3.2892,-1.103 0.91644,0 1.5362,-0.3812 3.2892,1.103 l 16.374,13.759"
         sodipodi:nodetypes="ccscc"
         inkscape:transform-center-y="16.84113"
         inkscape:connector-curvature="0"
         inkscape:transform-center-x="9.833205" />
      <path
         id="path21001"
         d="m -332.81,1105.2 c 0.35941,2.1623 0.49531,4.1584 2.2812,5.4375 1.52,1.0886 9.6488,6.8916 14.469,10.344 1.6442,1.0921 2.3648,1.0938 3.2812,1.0938 0.91644,0 1.6817,0.021 3.2812,-1.0938 l 14.469,-10.344 c 0.86106,-0.6167 1.2524,-1.3706 1.4688,-2.2187 v -3.0626 z"
         sodipodi:nodetypes="cscsccccc"
         style="opacity:0.34241;fill:#000000"
         inkscape:connector-curvature="0" />
      <path
         id="path20995"
         sodipodi:nodetypes="csssssc"
         d="m -332.9,1104.6 c 0.35941,2.1623 0.13137,3.9917 1.9173,5.2708 1.52,1.0886 9.5924,6.9719 14.46,10.357 1.6665,1.1589 2.3728,1.103 3.2892,1.103 0.91644,0 1.6074,0.1016 3.2892,-1.103 l 14.46,-10.357 c 1.7859,-1.2791 1.5579,-3.1085 1.9173,-5.2708"
         inkscape:transform-center-x="9.833205"
         inkscape:transform-center-y="-16.841136"
         inkscape:connector-curvature="0"
         style="fill:url(#linearGradient3506)" />
    </g>
  </g>
</svg>
