<?xml version="1.0" encoding="UTF-8" standalone="no"?>
<!--part of the rodentia icon theme by sixsixfive released under CC0 (https://creativecommons.org/publicdomain/zero/1.0/) on openclipart-->
<svg xmlns="http://www.w3.org/2000/svg" xmlns:xlink="http://www.w3.org/1999/xlink" viewBox="0 0 48 48">
 <defs id="0">
  <linearGradient id="2">
   <stop id="I" stop-color="#2e3436"/>
   <stop id="J" offset="1" stop-color="#2e3436" stop-opacity="0"/>
  </linearGradient>
  <linearGradient id="3">
   <stop id="K" stop-color="#fff"/>
   <stop id="L" offset="1" stop-color="#fff" stop-opacity="0"/>
  </linearGradient>
  <linearGradient id="4">
   <stop id="M" stop-color="#fff" stop-opacity="0.8"/>
   <stop id="N" offset="1" stop-color="#fff" stop-opacity="0"/>
  </linearGradient>
  <linearGradient id="5">
   <stop id="O" stop-color="#729fcf"/>
   <stop id="P" offset="1" stop-color="#204a87"/>
  </linearGradient>
  <linearGradient id="6">
   <stop id="Q" stop-color="#eeeeec"/>
   <stop id="R" offset="1" stop-color="#eeeeec" stop-opacity="0"/>
  </linearGradient>
  <radialGradient cx="38.15" cy="48.603" r="8.783" id="7" xlink:href="#2" gradientUnits="userSpaceOnUse" gradientTransform="matrix(1,0,0,0.3129771,0,33.391671)"/>
  <radialGradient cx="24.377" cy="45.941" r="23.08" id="8" xlink:href="#2" gradientUnits="userSpaceOnUse" gradientTransform="matrix(1,0,0,0.1455399,0,39.255173)"/>
  <linearGradient y1="2.594" x2="0" y2="22.281" id="9" xlink:href="#5" gradientUnits="userSpaceOnUse"/>
  <linearGradient y1="23.531" x2="0" y2="42.41" id="A" xlink:href="#5" gradientUnits="userSpaceOnUse"/>
  <linearGradient y1="23.563" x2="0" y2="42.38" id="B" xlink:href="#4" gradientUnits="userSpaceOnUse"/>
  <linearGradient y1="2.625" x2="0" y2="22.25" id="C" xlink:href="#4" gradientUnits="userSpaceOnUse"/>
  <linearGradient y1="4.219" x2="0" y2="43.781" id="D" xlink:href="#4" gradientUnits="userSpaceOnUse"/>
  <linearGradient x1="4.094" y1="-58.01" x2="15.298" y2="33.906" id="E" xlink:href="#6" gradientUnits="userSpaceOnUse" gradientTransform="translate(0,-1.4999995)"/>
  <linearGradient y1="18.438" x2="0" y2="43.563" id="F" xlink:href="#4" gradientUnits="userSpaceOnUse"/>
  <linearGradient x1="21.469" y1="-4.052" x2="31.61" y2="33.08" id="G" xlink:href="#3" gradientUnits="userSpaceOnUse"/>
 </defs>
 <g id="1">
  <g transform="translate(-0.4615383,-0.5150002)" id="H">
   <path d="m 46.933716,48.603432 a 8.78331,2.7489748 0 1 1 -17.56662,0 8.78331,2.7489748 0 1 1 17.56662,0 z" transform="translate(-4.2910826,-3.8224065)" id="S" opacity="0.8" fill="url(#7)"/>
   <path d="m 47.453955,45.941494 a 23.076923,3.3586134 0 1 1 -46.153847,0 23.076923,3.3586134 0 1 1 46.153847,0 z" transform="translate(-0.3770313,-2.8001078)" id="T" opacity="0.8" fill="url(#8)"/>
   <rect width="42" height="42" x="3" y="1.5" id="U" fill="#2e3436" rx="6"/>
   <path d="M 9,4.09375 C 6.2608771,4.09375 4.09375,6.2608771 4.09375,9 l 0,30 c 0,2.739123 2.1671271,4.90625 4.90625,4.90625 l 30,0 c 2.739123,0 4.90625,-2.167127 4.90625,-4.90625 l 0,-30 C 43.90625,6.2608771 41.739123,4.09375 39,4.09375 l -30,0 z" transform="translate(0,-1.4999995)" id="V" fill="#555753"/>
   <g transform="translate(-0.125,4.7683716e-7)" id="W">
    <path d="m 9,2.59375 c -1.6957941,0 -3.1524455,0.8422535 -4.03125,2.125 l 0,35.5625 c 0.8788045,1.282747 2.3354559,2.125 4.03125,2.125 l 1.1875,0 0,-39.8125 -1.1875,0 z" id="e" fill="#2e3436"/>
    <path d="m 38.0625,2.59375 0,39.8125 0.9375,0 c 1.870417,0 3.452161,-1.01814 4.28125,-2.53125 l 0,-34.75 C 42.452161,3.6118905 40.870417,2.59375 39,2.59375 l -0.9375,0 z" id="f" fill="#2e3436"/>
    <path d="m 11.46875,2.59375 0,19.6875 25.25,0 0,-19.6875 -25.25,0 z" id="g" fill="url(#9)"/>
    <path d="m 11.46875,23.53125 0,18.875 25.28125,0 0,-18.875 -25.28125,0 z" id="h" fill="url(#A)"/>
    <path d="m 39.15625,2.59375 0,0.375 1.78125,0 C 40.394929,2.7419244 39.78247,2.6130513 39.15625,2.59375 z m 0,2.25 0,1.90625 3.03125,0 0,-1.90625 -3.03125,0 z m 0,3.78125 0,1.90625 3.03125,0 0,-1.90625 -3.03125,0 z m 0,3.78125 0,1.90625 3.03125,0 0,-1.90625 -3.03125,0 z m 0,3.78125 0,1.875 3.03125,0 0,-1.875 -3.03125,0 z m 0,3.78125 0,1.90625 3.03125,0 0,-1.90625 -3.03125,0 z m 0,3.78125 0,1.90625 3.03125,0 0,-1.90625 -3.03125,0 z m 0,3.78125 0,1.875 3.03125,0 0,-1.875 -3.03125,0 z m 0,3.78125 0,1.875 3.03125,0 0,-1.875 -3.03125,0 z m 0,3.78125 0,1.90625 3.03125,0 0,-1.90625 -3.03125,0 z m 0,3.78125 0,1.875 3.03125,0 0,-1.875 -3.03125,0 z" id="i" fill="#d3d7cf"/>
    <path d="m 9,2.59375 c -0.6847807,0 -1.3491427,0.129033 -1.9375,0.375 l 2.03125,0 0,-0.375 -0.09375,0 z m -2.9375,2.25 0,1.90625 3.03125,0 0,-1.90625 -3.03125,0 z m 0,3.78125 0,1.90625 3.03125,0 0,-1.90625 -3.03125,0 z m 0,3.78125 0,1.90625 3.03125,0 0,-1.90625 -3.03125,0 z m 0,3.78125 0,1.875 3.03125,0 0,-1.875 -3.03125,0 z m 0,3.78125 0,1.90625 3.03125,0 0,-1.90625 -3.03125,0 z m 0,3.78125 0,1.90625 3.03125,0 0,-1.90625 -3.03125,0 z m 0,3.78125 0,1.875 3.03125,0 0,-1.875 -3.03125,0 z m 0,3.78125 0,1.875 3.03125,0 0,-1.875 -3.03125,0 z m 0,3.78125 0,1.90625 3.03125,0 0,-1.90625 -3.03125,0 z m 0,3.78125 0,1.875 3.03125,0 0,-1.875 -3.03125,0 z" id="j" fill="#d3d7cf"/>
    <path d="m 12,24.0625 0,17.8125 24.21875,0 0,-17.8125 -24.21875,0 z" id="k" opacity="0.8" fill="none" stroke="url(#B)"/>
    <path d="m 12,3.125 0,18.625 24.1875,0 0,-18.625 -24.1875,0 z" id="l" opacity="0.8" fill="none" stroke="url(#C)"/>
   </g>
   <path d="M 9,4.53125 C 6.5045343,4.53125 4.53125,6.5045343 4.53125,9 l 0,30 c 0,2.495466 1.9732843,4.46875 4.46875,4.46875 l 30,0 c 2.495466,0 4.46875,-1.973284 4.46875,-4.46875 l 0,-30 C 43.46875,6.5045343 41.495466,4.53125 39,4.53125 l -30,0 z" transform="translate(0,-1.4999995)" id="X" opacity="0.8" fill="none" stroke="url(#D)" stroke-linecap="round" stroke-dashoffset="30"/>
   <path d="m 9,2.5937505 c -2.7391229,0 -4.90625,2.1671271 -4.90625,4.90625 l 0,17.1562505 c 12.085208,-5.133143 25.680845,-9.569523 39.8125,-12.53125 l 0,-4.6250005 c 0,-2.7391229 -2.167127,-4.90625 -4.90625,-4.90625 l -30,0 0,0 z" id="Y" opacity="0.6" fill="url(#E)"/>
   <path d="M 48,31.000003 C 48,38.731987 41.731987,45 33.999999,45 26.268012,45 20,38.731987 20,31.000003 20,23.268017 26.268012,17.000004 33.999999,17.000004 41.731987,17.000004 48,23.268017 48,31.000003 l 0,0 z" id="Z" fill="#7c0000"/>
   <path d="m 34,18.46875 c -6.940107,0 -12.53125,5.591143 -12.53125,12.53125 0,6.940104 5.591142,12.53125 12.53125,12.53125 6.940107,0 12.53125,-5.591147 12.53125,-12.53125 0,-6.940106 -5.591143,-12.53125 -12.53125,-12.53125 z" id="a" fill="#c00"/>
   <path d="m 34,18.9375 c -6.689286,0 -12.0625,5.373214 -12.0625,12.0625 0,6.689282 5.373214,12.0625 12.0625,12.0625 6.689286,0 12.0625,-5.373219 12.0625,-12.0625 0,-6.689285 -5.373214,-12.0625 -12.0625,-12.0625 z" id="b" opacity="0.8" fill="none" stroke="url(#F)"/>
   <g id="c">
    <path d="m 27.4375,22.46875 c -0.627045,0.05958 -1.102747,0.571158 -1.09375,1.1875 l 0.03125,7.6875 0,7.6875 c 0.0012,0.474511 0.294169,0.843203 0.625,1.03125 0.375369,0.213356 0.830224,0.230067 1.21875,0 l 6.625,-3.84375 6.65625,-3.875 C 41.857573,32.136308 42.093415,31.717743 42.09375,31.3125 42.094091,30.90542 41.912624,30.490294 41.5,30.25 l -6.6875,-3.8125 -6.65625,-3.8125 0,0.03125 c -0.0066,-0.0039 -0.02454,0.004 -0.03125,0 -0.158069,-0.09361 -0.362576,-0.210797 -0.6875,-0.1875 z" transform="translate(1.7813755,-0.3466833)" id="m" fill="#7c0000"/>
    <path d="m 27.875,24.25 0.03125,7.09375 0,7.09375 6.15625,-3.5625 6.15625,-3.59375 -6.15625,-3.5 a 1.5427305,1.5427305 0 0 1 -0.03125,0 L 27.875,24.25 z" transform="translate(1.7813755,-0.3466833)" id="n" fill="#d3d7cf"/>
   </g>
   <path d="m 34,18.46875 c -6.940107,0 -12.53125,5.591143 -12.53125,12.53125 0,1.336241 0.209488,2.606554 0.59375,3.8125 7.49281,-2.858413 15.699958,-5.706019 23.65625,-8.21875 C 43.936232,21.850168 39.379937,18.46875 34,18.46875 z" id="d" fill="url(#G)"/>
  </g>
 </g>
</svg>
