<?xml version="1.0"?>
<svg xmlns:rdf="http://www.w3.org/1999/02/22-rdf-syntax-ns#" xmlns="http://www.w3.org/2000/svg" xmlns:cc="http://web.resource.org/cc/" xmlns:xlink="http://www.w3.org/1999/xlink" xmlns:dc="http://purl.org/dc/elements/1.1/" xmlns:svg="http://www.w3.org/2000/svg" id="svg2956" viewBox="0 0 615.87 619.5" version="1.0">
  <defs id="defs2958">
    <linearGradient id="linearGradient4490" x1="-25.038" gradientUnits="userSpaceOnUse" y1="346.13" gradientTransform="matrix(-.86603 .5 -.5 -.86603 331.78 548.32)" x2="-12.851" y2="416.39">
      <stop id="stop2627" stop-color="#b3b3b3" offset="0"/>
      <stop id="stop2629" stop-color="#f2f2f2" offset="1"/>
    </linearGradient>
    <radialGradient id="radialGradient4488" gradientUnits="userSpaceOnUse" cy="400.75" cx="13.874" gradientTransform="matrix(-3.5385 -4.2348 3.0742 -3.0196 -1030.8 1452.4)" r="97.219">
      <stop id="stop2415" offset="0"/>
      <stop id="stop2417" stop-color="#ff2a2a" stop-opacity="0" offset="1"/>
    </radialGradient>
    <radialGradient id="radialGradient4486" gradientUnits="userSpaceOnUse" cy="113.59" cx="24.622" gradientTransform="matrix(.59 1.7361 -.94677 .32175 105.92 139.75)" r="217.18">
      <stop id="stop2601" stop-color="#f00" offset="0"/>
      <stop id="stop2603" stop-color="#800000" offset="1"/>
    </radialGradient>
    <radialGradient id="radialGradient4484" gradientUnits="userSpaceOnUse" cy="146.64" cx="-10.714" gradientTransform="matrix(.59 1.7361 -.94677 .32175 105.93 139.04)" r="217.18">
      <stop id="stop2468" stop-color="#f2f2f2" offset="0"/>
      <stop id="stop2470" stop-color="#e6e6e6" offset="1"/>
    </radialGradient>
    <radialGradient id="radialGradient4482" gradientUnits="userSpaceOnUse" cy="320.22" cx="79.286" gradientTransform="matrix(.099671 1.2164 -1.5315 .12549 560.05 188.29)" r="217.18">
      <stop id="stop2458" offset="0"/>
      <stop id="stop2460" stop-color="#ccc" offset="1"/>
    </radialGradient>
  </defs>
  <g id="layer1" transform="translate(-4.3529 19.596)">
    <g id="g2635" transform="matrix(1.4096 0 0 1.4096 179.97 -162.42)">
      <g id="g2613">
        <path id="path2454" d="m203.77 511.72c99.39-57.39 136.24-181.65 86.57-283.24l-283.47-103.18c-6.8499 3.06-13.606 6.48-20.243 10.32-103.81 59.93-139.42 192.83-79.485 296.64 59.931 103.8 192.82 139.39 296.63 79.46zm86.57-283.24c-0.87-1.78-1.76-3.57-2.68-5.34 0.92 1.77 1.81 3.55 2.68 5.34zm-15.41-26.64c-0.56-0.81-1.1-1.63-1.66-2.43 0.56 0.8 1.1 1.61 1.66 2.43zm-12.8-17.04c-0.85-1.03-1.7-2.06-2.57-3.07 0.87 1.01 1.72 2.04 2.57 3.07zm-17.01-18.22c-1.09-1.03-2.16-2.08-3.27-3.09 1.11 1.01 2.18 2.05 3.27 3.09zm-14.72-12.86c-2.55-2.03-5.17-3.99-7.8-5.89 2.63 1.91 5.24 3.86 7.8 5.89zm-7.8-5.89c-1.34-0.97-2.68-1.93-4.04-2.87 1.36 0.94 2.7 1.9 4.04 2.87zm-4.04-2.87c-1.23-0.84-2.47-1.68-3.72-2.5 1.25 0.82 2.49 1.66 3.72 2.5zm-4.24-2.85c-1.32-0.86-2.66-1.7-3.99-2.53 1.34 0.83 2.66 1.67 3.99 2.53zm-3.99-2.53c-1.22-0.76-2.45-1.51-3.68-2.24 1.24 0.73 2.46 1.48 3.68 2.24zm-8.73-5.18c-1.16-0.65-2.33-1.31-3.5-1.94 1.18 0.63 2.33 1.29 3.5 1.94zm-4.73-2.57c-1.21-0.64-2.43-1.27-3.66-1.89 1.23 0.61 2.45 1.25 3.66 1.89zm-3.66-1.89c-1.45-0.74-2.91-1.46-4.38-2.16 1.47 0.7 2.93 1.42 4.38 2.16zm-4.38-2.16c-1.43-0.68-2.85-1.35-4.29-2 1.44 0.65 2.86 1.32 4.29 2zm-10.2-4.54c-1.07-0.45-2.16-0.88-3.24-1.31 1.08 0.43 2.16 0.86 3.24 1.31zm-3.24-1.31c-1.52-0.6-3.03-1.2-4.56-1.77 1.52 0.57 3.04 1.17 4.56 1.77zm-15.25-5.41c-2.35-0.73-4.71-1.42-7.09-2.08 2.38 0.66 4.74 1.35 7.09 2.08zm-22.11-5.67c-1.6-0.32-3.19-0.63-4.79-0.92 1.6 0.29 3.19 0.6 4.79 0.92zm-4.79-0.92c-1.51-0.27-3.01-0.54-4.53-0.78 1.51 0.24 3.03 0.51 4.53 0.78zm-5.23-0.87c-1.48-0.23-2.96-0.42-4.44-0.62 1.48 0.2 2.96 0.39 4.44 0.62zm-4.44-0.62c-1.61-0.21-3.23-0.41-4.85-0.59 1.62 0.18 3.24 0.38 4.85 0.59zm-9.71-1.07c-1.62-0.14-3.25-0.29-4.88-0.39 1.63 0.1 3.26 0.25 4.88 0.39zm-4.88-0.39c-1.62-0.11-3.25-0.19-4.87-0.26 1.63 0.07 3.24 0.15 4.87 0.26zm-4.87-0.26c-1.64-0.06-3.28-0.12-4.926-0.15 1.636 0.03 3.296 0.09 4.926 0.15zm-34.409 1.29c-1.641 0.19-3.266 0.4-4.905 0.63 1.637-0.23 3.267-0.44 4.905-0.63zm-4.905 0.63c-1.339 0.18-2.67 0.4-4.009 0.61 1.335-0.21 2.673-0.43 4.009-0.61zm-9.814 1.62c-1.63 0.31-3.258 0.64-4.884 0.98 1.628-0.34 3.253-0.67 4.884-0.98zm-20.139 4.81c-1.387 0.4-2.77 0.81-4.153 1.24 1.382-0.43 2.767-0.84 4.153-1.24zm-4.153 1.24c-1.604 0.5-3.211 1.01-4.808 1.55 1.6-0.54 3.201-1.05 4.808-1.55zm-10.167 3.45c-2.996 1.1-5.981 2.27-8.946 3.51 2.965-1.24 5.95-2.41 8.946-3.51z" fill="url(#radialGradient4482)"/>
        <g id="g2609">
          <path id="path4474" d="m201.13 506.47c99.4-57.39 136.24-181.65 86.58-283.23l-283.48-103.18c-6.8437 3.05-13.6 6.48-20.237 10.31-103.8 59.93-139.41 192.84-79.485 296.64 59.931 103.81 192.82 139.39 296.62 79.46zm86.58-283.23c-0.87-1.79-1.76-3.57-2.69-5.34 0.93 1.77 1.82 3.55 2.69 5.34zm-15.42-26.64c-0.55-0.82-1.1-1.64-1.66-2.44 0.57 0.81 1.11 1.62 1.66 2.44zm-12.8-17.05c-0.85-1.02-1.69-2.05-2.56-3.06 0.87 1.01 1.71 2.04 2.56 3.06zm-17.01-18.21c-1.09-1.04-2.16-2.08-3.26-3.1 1.1 1.02 2.17 2.06 3.26 3.1zm-14.71-12.87c-2.56-2.03-5.17-3.98-7.81-5.88 2.64 1.9 5.25 3.85 7.81 5.88zm-7.81-5.88c-1.33-0.97-2.67-1.93-4.03-2.87 1.35 0.93 2.7 1.9 4.03 2.87zm-4.03-2.87c-1.23-0.85-2.48-1.69-3.72-2.51 1.24 0.82 2.49 1.66 3.72 2.51zm-4.25-2.85c-1.31-0.86-2.65-1.7-3.99-2.54 1.34 0.84 2.67 1.67 3.99 2.54zm-3.99-2.54c-1.22-0.76-2.44-1.5-3.67-2.24 1.23 0.74 2.45 1.48 3.67 2.24zm-8.72-5.17c-1.17-0.65-2.33-1.32-3.51-1.95 1.18 0.64 2.34 1.29 3.51 1.95zm-4.73-2.57c-1.22-0.64-2.44-1.28-3.66-1.9 1.22 0.62 2.44 1.26 3.66 1.9zm-3.66-1.9c-1.46-0.73-2.91-1.45-4.39-2.16 1.48 0.71 2.93 1.43 4.39 2.16zm-4.39-2.16c-1.42-0.68-2.85-1.34-4.29-1.99 1.44 0.65 2.87 1.31 4.29 1.99zm-10.19-4.54c-1.08-0.44-2.17-0.87-3.25-1.3 1.09 0.43 2.17 0.86 3.25 1.3zm-3.25-1.3c-1.52-0.6-3.02-1.2-4.56-1.77 1.53 0.57 3.05 1.17 4.56 1.77zm-15.25-5.41c-2.35-0.74-4.7-1.43-7.08-2.08 2.37 0.65 4.73 1.34 7.08 2.08zm-22.11-5.68c-1.59-0.32-3.19-0.63-4.78-0.91 1.6 0.28 3.19 0.59 4.78 0.91zm-4.78-0.91c-1.51-0.27-3.02-0.54-4.53-0.78 1.5 0.24 3.03 0.51 4.53 0.78zm-5.24-0.88c-1.47-0.22-2.95-0.42-4.43-0.61 1.48 0.19 2.96 0.38 4.43 0.61zm-4.43-0.61c-1.61-0.22-3.23-0.42-4.85-0.6 1.62 0.18 3.24 0.38 4.85 0.6zm-9.71-1.07c-1.63-0.15-3.25-0.29-4.88-0.4 1.63 0.11 3.25 0.25 4.88 0.4zm-4.88-0.4c-1.62-0.1-3.25-0.18-4.88-0.25 1.64 0.07 3.25 0.15 4.88 0.25zm-4.88-0.25c-1.636-0.07-3.278-0.12-4.92-0.15 1.635 0.03 3.292 0.08 4.92 0.15zm-34.403 1.28c-1.64 0.19-3.266 0.4-4.904 0.63 1.636-0.23 3.266-0.44 4.904-0.63zm-4.904 0.63c-1.34 0.19-2.671 0.41-4.009 0.62 1.334-0.21 2.672-0.43 4.009-0.62zm-9.815 1.63c-1.63 0.3-3.258 0.63-4.884 0.98 1.628-0.35 3.253-0.68 4.884-0.98zm-20.139 4.8c-1.387 0.41-2.77 0.82-4.153 1.25 1.382-0.43 2.767-0.84 4.153-1.25zm-4.153 1.25c-1.604 0.5-3.21 1.01-4.807 1.55 1.6-0.54 3.2-1.05 4.807-1.55zm-10.167 3.45c-2.996 1.1-5.981 2.26-8.9463 3.5 2.9663-1.24 5.9503-2.4 8.9463-3.5z" fill="url(#radialGradient4484)"/>
          <path id="path2595" d="m32.943 131.25c-5.817 1.85-11.556 3.93-17.125 6.28-5.8962 2.5-11.633 5.25-17.219 8.29-5.5868 3.03-11.006 6.36-16.25 9.9-5.244 3.55-10.319 7.33-15.188 11.35-4.869 4.01-9.539 8.25-14 12.71-4.46 4.46-8.7 9.14-12.718 14-4.019 4.87-7.8 9.95-11.344 15.19-3.544 5.25-6.87 10.67-9.906 16.25-3.037 5.59-5.787 11.32-8.282 17.22s-4.735 11.95-6.656 18.13c-1.921 6.17-3.53 12.46-4.845 18.87-0.66 3.21-1.25 6.46-1.75 9.72s-0.91 6.53-1.25 9.84c-0.34 3.32-0.58 6.68-0.75 10.03-0.17 3.36-0.25 6.73-0.25 10.13s0.08 6.8 0.25 10.16c0.17 3.35 0.41 6.68 0.75 10 0.34 3.31 0.75 6.61 1.25 9.87s1.09 6.48 1.75 9.69c1.315 6.41 2.924 12.73 4.845 18.9 1.921 6.18 4.161 12.2 6.656 18.1 2.495 5.89 5.245 11.63 8.282 17.22 3.036 5.58 6.362 11.03 9.906 16.28 3.544 5.24 7.325 10.29 11.344 15.15 4.018 4.87 8.258 9.54 12.718 14 4.461 4.46 9.131 8.74 14 12.75 4.869 4.02 9.944 7.8 15.188 11.35 5.244 3.54 10.663 6.84 16.25 9.87 5.5864 3.04 11.323 5.82 17.219 8.32 5.895 2.49 11.953 4.7 18.125 6.62 6.171 1.92 12.46 3.56 18.875 4.88 3.207 0.65 6.456 1.22 9.718 1.71 3.262 0.5 6.563 0.92 9.875 1.25 3.313 0.34 6.642 0.62 10 0.79 3.359 0.17 6.725 0.25 10.125 0.25 3.401 0 6.798-0.08 10.154-0.25 3.36-0.17 6.69-0.45 10-0.79 3.31-0.33 6.62-0.75 9.88-1.25 3.26-0.49 6.48-1.06 9.69-1.71 6.41-1.32 12.73-2.96 18.9-4.88s12.2-4.13 18.1-6.62c5.89-2.5 11.63-5.28 17.21-8.32 5.59-3.03 11.04-6.33 16.29-9.87 5.24-3.55 10.28-7.33 15.15-11.35 4.87-4.01 9.54-8.29 14-12.75s8.73-9.13 12.75-14c4.02-4.86 7.8-9.91 11.35-15.15 3.54-5.25 6.83-10.7 9.87-16.28 3.04-5.59 5.82-11.33 8.31-17.22 2.5-5.9 4.71-11.92 6.63-18.1 1.92-6.17 3.56-12.49 4.87-18.9 0.66-3.21 1.22-6.43 1.72-9.69s0.91-6.56 1.25-9.87c0.34-3.32 0.61-6.65 0.78-10 0.17-3.36 0.25-6.76 0.25-10.16s-0.08-6.77-0.25-10.13c-0.17-3.35-0.44-6.71-0.78-10.03-0.34-3.31-0.75-6.58-1.25-9.84s-1.06-6.51-1.72-9.72c-1.31-6.41-2.95-12.7-4.87-18.87-1.92-6.18-4.13-12.23-6.63-18.13-2.49-5.9-5.27-11.63-8.31-17.22-2.21-4.07-4.7-7.95-7.19-11.84l-225.75-82.13z" fill="url(#radialGradient4486)"/>
        </g>
      </g>
      <g id="g2631">
        <path id="path2411" d="m4.7156 120.48c2.0804 4.84 4.3172 9.62 6.7474 14.34 53.571 104.11 173.8 140.96 276.73 88.84l-283.47-103.18z" fill="url(#radialGradient4488)"/>
        <path id="path2385" d="m4.2524 120.31c2.2023 4.5 4.5575 8.96 7.1026 13.36 56.099 97.17 176.12 134.59 276.38 89.82l-283.49-103.18z" fill="url(#linearGradient4490)"/>
      </g>
    </g>
    <path id="text3900" transform="rotate(20)" fill="#fff" d="m178.16 109.95c-4.21-3.93-7.77-6.43-10.68-7.51-2.92-1.09-7.34-1.56-13.27-1.42-3.33-0.1-7.84 0-13.53 0.32-5.7 0.31-10.89 1.43-15.57 3.34-4.68 1.92-7.16 5.23-7.44 9.94 0.16 3.76 1.47 6.18 3.91 7.26 2.45 1.09 5.07 2.63 7.88 4.61 2.81 1.99 4.83 6.22 6.07 12.69 1.07 7.31 1.72 14.65 1.96 22.02 0.23 7.36 0.32 14.71 0.28 22.02 0.01 4.73-0.12 9.89-0.38 15.48-0.27 5.59-0.75 10.64-1.45 15.17-0.81 4.13-2.3 6.94-4.48 8.43-2.18 1.5-4.24 2.86-6.2 4.11-1.95 1.24-2.99 3.56-3.12 6.95 0.2 4.33 2.12 7.53 5.76 9.6 3.65 2.06 7.81 3.4 12.49 4s8.68 0.87 11.99 0.81c3.38 0.07 7.42-0.21 12.13-0.82 4.71-0.62 8.89-1.99 12.54-4.12 3.65-2.12 5.58-5.42 5.78-9.88-0.12-3.11-1.08-5.19-2.91-6.22-1.82-1.03-3.81-2.23-5.96-3.6-2.16-1.37-3.81-4.12-4.94-8.25-0.59-2.72-0.98-5.75-1.16-9.08-0.19-3.33-0.27-6.46-0.26-9.39-0.12-2.59 0.18-6.03 0.89-10.32 0.72-4.29 2.59-6.67 5.61-7.13 2.2 0.15 4.44 1.07 6.72 2.76 2.28 1.7 4.17 3.28 5.66 4.75l62.72 56.22c1.52 1.37 3.15 2.54 4.9 3.53 1.74 0.98 3.63 1.5 5.65 1.55 4.44-0.29 7.52-2.81 9.26-7.55 1.73-4.75 2.71-10 2.94-15.76 0.22-5.76 0.28-10.3 0.19-13.64v-52.57c-0.06-4.06 0.05-8.71 0.32-13.95 0.28-5.23 1.05-9.78 2.31-13.65 2.11-4.05 4.9-6.55 8.4-7.48 3.5-0.94 5.44-3.99 5.81-9.16-0.22-4.57-2.24-7.77-6.06-9.6-3.83-1.82-8.15-2.87-12.97-3.14s-8.83-0.35-12.02-0.25c-3.05-0.09-6.84 0.02-11.37 0.32s-8.59 1.33-12.18 3.07c-3.58 1.75-5.48 4.75-5.68 8.99 0.39 4.95 2.3 7.99 5.73 9.13 3.44 1.14 6.06 3.58 7.87 7.31 0.78 2.49 1.29 5.52 1.52 9.08s0.33 6.69 0.3 9.39c0.1 2-0.14 4.39-0.73 7.18s-2.1 4.32-4.54 4.59c-1.97-0.2-4.22-1.27-6.75-3.2-2.53-1.92-4.48-3.5-5.84-4.71l-48.1-42.22zm142.09-6.7c-4.7-0.34-9.97-0.17-15.8 0.53-5.84 0.7-9.03 3.97-9.57 9.82 0.18 4.33 1.53 6.7 4.05 7.13 2.52 0.44 5.12 1.79 7.8 4.07s4.34 8.36 5 18.23c0.67 11.75 1.1 20.51 1.28 26.28s0.12 11.55-0.2 17.34-0.88 14.59-1.69 26.41c-0.64 6.86-2.16 11.27-4.58 13.24-2.42 1.96-4.76 3.35-7.01 4.17-2.26 0.81-3.47 2.93-3.64 6.34-0.27 1.51 0.33 3.3 1.78 5.35 1.46 2.05 5.4 3.17 11.82 3.37h83.43c3.45 0.02 6.59 0.14 9.43 0.36 2.85 0.22 5.38 0.44 7.62 0.66 2.14 0.32 3.99 0.59 5.53 0.84 1.54 0.24 2.67 0.36 3.4 0.38 2.79-0.22 5.64-2.53 8.55-6.93 2.91-4.41 5.37-9.57 7.38-15.51 2.01-5.93 3.06-11.31 3.15-16.13 0-3.03-0.82-5.9-2.44-8.63-1.62-2.72-4.06-4.17-7.31-4.36-5.04 0.35-8.44 2.83-10.2 7.42s-4.9 9.19-9.43 13.78-13.48 7.07-26.85 7.42c-6.99 0.2-12.17-0.04-15.52-0.73s-5.52-3.02-6.5-7c-0.99-3.98-1.43-10.81-1.32-20.48-0.19-3.44 0.14-6.62 0.97-9.54 0.82-2.93 3.28-4.49 7.35-4.67 6.48 0.26 10.35 2.1 11.63 5.52s2.12 6.85 2.52 10.27 2.52 5.26 6.35 5.52c4-0.25 6.98-2.46 8.94-6.62 1.96-4.17 3.24-8.8 3.84-13.89 0.61-5.09 0.88-9.14 0.82-12.17 0.06-2.87-0.15-6.71-0.64-11.51-0.5-4.81-1.65-9.17-3.45-13.1s-4.63-6.01-8.49-6.24c-4.48 0.28-7.05 2.23-7.71 5.84-0.67 3.62-1.39 7.23-2.17 10.85s-3.57 5.56-8.39 5.84c-5.96 0.23-9.67-0.33-11.14-1.67-1.47-1.35-2.08-4.85-1.85-10.51-0.56-11.35 0-18.84 1.7-22.45 1.7-3.62 7.89-5.27 18.6-4.95 12.35 0.24 20.48 1.92 24.36 5.05 3.89 3.13 6.52 6.26 7.9 9.38 1.38 3.13 4.5 4.82 9.35 5.06 3.9-0.19 6.65-1.79 8.24-4.8 1.6-3.01 2.37-6.28 2.31-9.82 0.04-5.11-1.25-11.03-3.88-17.76s-6.81-10.418-12.56-11.061c-1.15 0.17-3.87 0.851-8.17 2.031s-13.01 1.86-26.13 2.03h-58.46zm255.87 130.51c1.67 4.31 3.7 7.71 6.08 10.2 2.39 2.49 6.04 3.76 10.96 3.81 5.65-0.22 9.98-2.43 13-6.65 3.01-4.22 5.51-9.18 7.51-14.87l34.91-91.34c2.98-6.49 6-10.61 9.05-12.35 3.06-1.75 4.71-4.8 4.95-9.16-0.46-5.49-3.34-8.98-8.65-10.46s-10.27-2.12-14.89-1.92c-2.98-0.09-6.72 0.01-11.23 0.3-4.5 0.28-8.54 1.25-12.12 2.91s-5.47 4.52-5.68 8.56c0.55 4.98 2.75 7.86 6.6 8.62 3.85 0.77 6.05 3.04 6.6 6.8-0.07 1.36-0.91 5.01-2.52 10.95-1.62 5.94-3.61 11.73-5.99 17.35-2.39 5.63-4.76 8.64-7.12 9.05-2.49-0.45-4.72-2.69-6.68-6.7-1.95-4.01-3.32-7.05-4.08-9.13-1.26-2.55-3-6.18-5.23-10.88-2.22-4.71-3.46-8.59-3.7-11.65 0.38-2.37 1.9-4.43 4.56-6.19 2.67-1.76 4.19-4.23 4.57-7.41 0.25-1.24-0.16-2.84-1.25-4.8-1.08-1.95-4.35-3.72-9.81-5.29s-14.63-2.4-27.5-2.49c-13.85 0.14-23.55 1.21-29.12 3.2s-8.78 4.05-9.63 6.18-1.13 3.46-0.83 4.01c0.06 2.51 0.8 4.55 2.23 6.12s3.19 2.84 5.28 3.83c3.09 2.14 5.58 5.32 7.46 9.54 1.87 4.22 2.84 6.99 2.89 8.32-0.07 0.88-0.44 2.22-1.09 4.03-0.66 1.82-1.17 3.11-1.55 3.89-0.55 2.06-1.78 5.39-3.68 9.97s-4.19 7.14-6.88 7.68c-2.4-0.52-4.55-3.02-6.44-7.51-1.89-4.48-3.13-7.79-3.7-9.94-0.66-1.66-1.94-5.09-3.86-10.28s-3-9.47-3.25-12.86c0.2-2.92 0.97-5.15 2.34-6.67 1.36-1.53 2.14-3.7 2.33-6.52 0.41-4.19-1.67-7.39-6.24-9.62s-14.06-3.35-28.47-3.37c-3.39-0.09-7.95 0.12-13.67 0.62-5.73 0.5-10.93 1.77-15.62 3.83-4.68 2.05-7.17 5.37-7.45 9.96 0.07 3.87 0.84 6.3 2.32 7.3 1.48 1.01 3.27 2.14 5.38 3.39s4.15 4.18 6.11 8.79l37.75 96.42c1.64 4.77 3.69 8.67 6.14 11.72 2.45 3.04 6.43 4.61 11.92 4.72 6.32-0.1 10.69-1.79 13.1-5.08s4.54-7.62 6.39-12.99l12.38-30.65c2.51-6.44 4.44-11.11 5.81-14 1.37-2.9 2.95-4.32 4.75-4.27 1.6 0.22 2.86 1.36 3.78 3.43 0.91 2.07 1.62 3.77 2.1 5.1l18.68 44.45z"/>
  </g>
  <metadata>
    <rdf:RDF>
      <cc:Work>
        <dc:format>image/svg+xml</dc:format>
        <dc:type rdf:resource="http://purl.org/dc/dcmitype/StillImage"/>
        <cc:license rdf:resource="http://creativecommons.org/licenses/publicdomain/"/>
        <dc:publisher>
          <cc:Agent rdf:about="http://openclipart.org/">
            <dc:title>Openclipart</dc:title>
          </cc:Agent>
        </dc:publisher>
        <dc:title>Label Icon</dc:title>
        <dc:date>2008-11-01T18:46:45</dc:date>
        <dc:description>Label with the word 'new' written on that.</dc:description>
        <dc:source>http://openclipart.org/detail/19953/label-icon-by-sheikh_tuhin-19953</dc:source>
        <dc:creator>
          <cc:Agent>
            <dc:title>sheikh_tuhin</dc:title>
          </cc:Agent>
        </dc:creator>
        <dc:subject>
          <rdf:Bag>
            <rdf:li>clip art</rdf:li>
            <rdf:li>clipart</rdf:li>
            <rdf:li>colour</rdf:li>
            <rdf:li>how i did it</rdf:li>
            <rdf:li>image</rdf:li>
            <rdf:li>label</rdf:li>
            <rdf:li>media</rdf:li>
            <rdf:li>new</rdf:li>
            <rdf:li>png</rdf:li>
            <rdf:li>public domain</rdf:li>
            <rdf:li>red</rdf:li>
            <rdf:li>svg</rdf:li>
          </rdf:Bag>
        </dc:subject>
      </cc:Work>
      <cc:License rdf:about="http://creativecommons.org/licenses/publicdomain/">
        <cc:permits rdf:resource="http://creativecommons.org/ns#Reproduction"/>
        <cc:permits rdf:resource="http://creativecommons.org/ns#Distribution"/>
        <cc:permits rdf:resource="http://creativecommons.org/ns#DerivativeWorks"/>
      </cc:License>
    </rdf:RDF>
  </metadata>
</svg>
