<svg xmlns="http://www.w3.org/2000/svg" xmlns:xlink="http://www.w3.org/1999/xlink" viewBox="0 0 49.5 75"><defs><path id="0" d="m450.95 201.15c0 4.112-3.333 7.445-7.445 7.445-4.112 0-7.445-3.333-7.445-7.445 0-4.112 3.333-7.445 7.445-7.445 4.112 0 7.445 3.333 7.445 7.445"/><clipPath><path d="m2174.69 1733.84c-1.307-.117-5.762 2.2-2.737 2.898 1.249.288 3.473-2.832 2.737-2.898"/></clipPath><clipPath><path d="m2036.08 2003.71c.837.33 1.495.254 2.01-.012.725.59 2.153.171 2.153.171 0 0-.01-8.755-.238-12.01-.185-2.487-.467-5.886-.648-6.82-.484-2.508-2.227 1.185-2.096 2.245.074.597.166 3.956.384 5.98.23.693.089 4.459.034 7.116-3.098-1.637-9.193-4.84-13.825-7.165.425-2.82 1.043-7.086 1.223-9.156.206-2.485.459-5.886.427-6.837-.086-2.553-2.385.822-2.421 1.89-.021.602-.455 3.933-.556 5.967l.111-.047c.01.76-.706 4.389-1.176 6.999-.576-.28-1.102-.532-1.566-.747-4.21-1.939-9.986-4.556-11.66-5.152-4.493-1.599.081 3.703 1.919 4.468 1.035.431 6.589 3.24 10.07 4.738l-.02-.179c1.969.741 14.05 7.826 15.874 8.546"/></clipPath><clipPath><path d="m2220.59 1784.78c-1.524-.845-28.11-17.84-33.806-19.707-3.548-1.164-.736 1.605 1.872 3.03 1.576.861 3.085 1.631 3.085 1.631 0 0 23.709 14.416 27.42 16.239 3.711 1.823 2.953-.348 1.428-1.193"/></clipPath><clipPath><path d="m2232.1 1778.52c-1.524-.845-28.11-17.84-33.806-19.707-3.548-1.164-.736 1.606 1.872 3.03 1.576.861 3.085 1.631 3.085 1.631 0 0 23.709 14.416 27.42 16.239 3.711 1.823 2.953-.348 1.428-1.193"/></clipPath><clipPath><path d="m2226.34 1781.65c-1.524-.845-28.11-17.84-33.806-19.707-3.548-1.164-.736 1.605 1.872 3.03 1.576.861 3.085 1.631 3.085 1.631 0 0 23.709 14.416 27.42 16.239 3.711 1.823 2.953-.348 1.428-1.193"/></clipPath><clipPath><path d="m2194.14 1722.73c-1.307-.117-5.762 2.2-2.737 2.898 1.25.288 3.473-2.832 2.737-2.898"/></clipPath><clipPath><path d="m2085.27 1677.41c-1.572-.844-6.653-6.697-2.834-5.03 1.577.688 5.125 2.788 8.747 5.02.031 1.422.25 2.942.372 3.977-2.983-1.673-5.399-3.487-6.285-3.962"/></clipPath><clipPath><path d="m2244.05 1740.52c1.307-.117 5.762 2.2 2.737 2.898-1.25.288-3.473-2.832-2.737-2.898"/></clipPath><clipPath><path d="m1976.57 1672.51c-6.657 0-11.49-3.102-11.49-6.394 0-3.293 4.833-6.394 11.49-6.394 6.657 0 11.49 3.102 11.49 6.394 0 3.293-4.833 6.394-11.49 6.394"/></clipPath><clipPath><path d="m2209.24 1720.41c1.307-.117 5.762 2.2 2.737 2.898-1.249.288-3.473-2.832-2.737-2.898"/></clipPath><clipPath><path d="m1967.23 1690.52c-6.657 0-11.49-3.102-11.49-6.394 0-3.293 4.833-6.394 11.49-6.394 6.657 0 11.49 3.102 11.49 6.394 0 3.293-4.833 6.394-11.49 6.394"/></clipPath><clipPath><path d="m2237.85 1775.39c-1.524-.845-28.11-17.84-33.806-19.707-3.548-1.164-.736 1.606 1.872 3.03 1.576.861 3.085 1.631 3.085 1.631 0 0 23.709 14.416 27.42 16.239 3.711 1.823 2.953-.348 1.428-1.193"/></clipPath><clipPath><path d="m2068.57 1858.24c-1.155-12.553 21.853-22.532 48.659-22.491 27.21-.041 50.21 9.939 48.656 22.491 1.559.586-.664.586-2.162 0 1.498-10.843-19.284-20.781-46.49-20.787-26.806.01-47.59 9.944-46.5 20.787-1.094.586-3.317.586-2.162 0"/></clipPath><clipPath><path d="m2176.46 1757.7c1.445-.569 10.994-6.171 12.552-6.757l-.015.141c2.755-1.185 7.145-3.406 7.964-3.746 1.453-.604 5.07-4.797 1.517-3.533-1.323.471-5.891 2.54-9.22 4.073-4.343 2.02-15.638 8.03-15.638 8.03 0 0 .646 2.658 2.84 1.794"/></clipPath><clipPath><path d="m2079.38 1764.68c-.902-12.553 17.08-22.532 38.02-22.491 21.262-.041 39.24 9.939 38.02 22.491 1.218.587-.519.587-1.69 0 1.171-10.843-15.07-20.78-36.33-20.787-20.946.01-37.19 9.944-36.33 20.787-.855.587-2.592.587-1.69 0"/></clipPath><clipPath><path d="m2107.52 1769.95c-.07 2.023.935 38.67-.599 45.46-.956 4.23-2.022-.228-1.881-3.677.085-2.085.22-4.048.22-4.048 0 0-.167-32.24.235-37.02.402-4.786 2.096-2.732 2.026-.709"/></clipPath><clipPath><path d="m2080.31 1830.8c0 0 12.693-11.276 37.17-11.276 24.479 0 37.475 11.885 37.475 11.885 0 0 .334-1.585-1.495-3.383-1.829-1.798-15.731-11.09-35.98-11.09-20.249 0-35.98 11.08-35.98 11.08l-1.193 2.788"/></clipPath><clipPath><path d="m2102.44 1877.74c0 0 4.873-5.353 14.271-5.353 9.398 0 14.386 5.642 14.386 5.642 0 0 .128-.752-.574-1.606-.702-.853-6.04-5.266-13.813-5.266-7.773 0-13.813 5.259-13.813 5.259l-.458 1.323"/></clipPath><clipPath><path d="m2245.85 1767c-1.509-.871-5.956-4.314-11.616-6.281-3.527-1.225-.764 1.592 1.819 3.062 1.561.888 3.056 1.685 3.056 1.685 0 0 1.613.814 5.291 2.701 3.679 1.887 2.958-.297 1.449-1.168"/></clipPath><clipPath><path d="m2086.65 1875.29c.907-3.047 8.16-5.18 10.275-12.799 2.115-7.618 3.324-12.189-4.533-31.692-7.858-19.503 1.209-40.53-.302-52.41-1.511-11.884-1.511-12.189-7.555-21.636-6.04-9.447 3.02-15.846 4.533-20.11 1.511-4.266-4.231-10.97-4.231-10.97 0 0-8.16 4.57-8.764 13.1-.604 8.533.907 24.07.907 24.07 0 0 4.231 3.961 4.231 9.447 0 5.485 1.177 59.04.286 60.15-.89 1.106-6.633 5.982-8.144 12.991-1.511 7.01-3.324 12.189-1.813 15.541 1.511 3.352 3.627 8.228 7.555 11.275 3.929 3.047 7.555 3.047 7.555 3.047"/></clipPath><clipPath><path d="m2173.95 1761.06c1.49-.787 19.21-11.373 24.558-12.833 3.334-.91 2.174 1.278-.371 2.6-1.538.799-3 1.502-3 1.502 0 0-14.741 7.973-18.329 9.62-3.588 1.647-4.345-.101-2.856-.888"/></clipPath><clipPath><path d="m2228.43 1742.76c-1.509-.871-19.247-12.283-24.906-14.249-3.527-1.225-.764 1.592 1.819 3.062 1.561.888 3.056 1.685 3.056 1.685 0 0 14.903 8.782 18.582 10.67 3.679 1.887 2.958-.297 1.449-1.168"/></clipPath><clipPath><path d="m2207.63 1747.03c-1.508-.81-6.386-6.428-2.72-4.83 1.514.66 4.919 2.676 8.395 4.815.03 1.365.24 2.824.357 3.817-2.863-1.606-5.182-3.347-6.03-3.803"/></clipPath><clipPath><path d="m2171.68 1741.11c1.49-.787 19.21-11.373 24.558-12.834 3.334-.91 2.174 1.278-.371 2.6-1.538.799-3 1.502-3 1.502 0 0-14.741 7.973-18.329 9.62-3.588 1.647-4.345-.101-2.856-.888"/></clipPath><clipPath><path d="m2106.94 1672.96c-1.573-.908-20.05-12.797-25.95-14.845-3.675-1.277-.796 1.659 1.895 3.19 1.626.925 3.184 1.755 3.184 1.755 0 0 15.528 9.15 19.361 11.12 3.833 1.966 3.082-.309 1.51-1.217"/></clipPath><clipPath><path d="m2007.45 2016.2l2.02-1.227c0 0 1.908-.975 3.901-2.063 3.298-1.801 6.855-5.303 2.368-3.832-2.022.663-6.13 2.836-11.03 5.641l2.743 1.48"/></clipPath><clipPath><path d="m2047.81 1671.24c1.552-.82 20.01-11.85 25.588-13.371 3.474-.948 2.266 1.332-.386 2.708-1.603.832-3.128 1.565-3.128 1.565 0 0-15.36 8.306-19.1 10.02-3.738 1.716-4.528-.105-2.976-.925"/></clipPath><clipPath><path d="m2000.15 2012.26l2.05-1.244c0 0 1.908-.975 3.901-2.063 3.298-1.801 6.855-5.303 2.368-3.832-2.026.665-6.146 2.844-11.06 5.658l2.744 1.481"/></clipPath><clipPath><path d="m2042.12 1982.73c-1.884-.995-24.292-14.384-31.06-16.231-4.217-1.151-2.75 1.617.469 3.288 1.946 1.01 3.796 1.9 3.796 1.9 0 0 18.643 10.08 23.18 12.166 4.537 2.083 5.496-.128 3.612-1.123"/></clipPath><clipPath><path d="m1992.84 2008.32l2.078-1.261c0 0 1.908-.975 3.901-2.063 3.299-1.801 6.855-5.303 2.368-3.832-2.03.666-6.162 2.853-11.09 5.675l2.745 1.481"/></clipPath><clipPath><path d="m2014.76 2020.14l1.993-1.21c0 0 1.908-.975 3.901-2.063 3.298-1.801 6.855-5.303 2.368-3.832-2.02.662-6.113 2.827-11 5.625l2.742 1.48"/></clipPath><clipPath><path d="m2039.25 2007.95c-1.884-.995-24.292-14.384-31.06-16.231-4.217-1.151-2.75 1.617.469 3.288 1.946 1.01 3.796 1.9 3.796 1.9 0 0 18.643 10.08 23.18 12.166 4.537 2.083 5.496-.128 3.612-1.123"/></clipPath><clipPath><path d="m2038.31 1973.54c-.931.083 1.881 4.03 3.461 3.665 3.826-.882-1.808-3.812-3.461-3.665"/></clipPath><clipPath><path d="m1994.62 1956.55c-1.653-.148-7.287 2.782-3.461 3.665 1.58.365 4.392-3.581 3.461-3.665"/></clipPath><clipPath><path d="m2013.72 1959.49c-.931.083 1.881 4.03 3.461 3.665 3.826-.882-1.808-3.812-3.461-3.665"/></clipPath><clipPath><path d="m1950.59 1981.98c-1.653-.148-7.287 2.782-3.461 3.665 1.58.364 4.392-3.581 3.461-3.665"/></clipPath><clipPath><path d="m1970.35 1984.82c-1.535.887-2.425 2.847-.293 2.338l9.854-5.172c7.04-4.04 15.772-9.183 15.772-9.183 0 0 1.891-1.01 3.865-2.131 3.266-1.859 6.762-5.422 2.301-3.873-7.157 2.486-29.589 16.918-31.498 18.02"/></clipPath><clipPath><path d="m2116.76 1706.95c-1.588-.88-29.29-18.587-35.22-20.532-3.697-1.212-.767 1.673 1.951 3.157 1.642.897 3.214 1.7 3.214 1.7 0 0 24.703 15.02 28.57 16.918 3.867 1.899 3.076-.363 1.488-1.243"/></clipPath><clipPath><path d="m1996.66 1990.22c1.908-1.024 8.08-8.129 3.44-6.108-1.915.835-6.221 3.384-10.617 6.09-.038 1.726-.303 3.572-.452 4.828 3.621-2.031 6.554-4.232 7.629-4.81"/></clipPath><clipPath><path d="m2052.79 1688.52c1.505-.593 11.455-6.43 13.08-7.04l-.016.147c2.87-1.235 7.445-3.549 8.298-3.903 1.514-.63 5.282-4.998 1.581-3.68-1.379.491-6.138 2.646-9.606 4.244-4.525 2.102-16.294 8.363-16.294 8.363 0 0 .673 2.77 2.959 1.869"/></clipPath><clipPath><path d="m2050.18 1692.02c1.552-.82 20.01-11.85 25.588-13.371 3.474-.948 2.265 1.332-.387 2.708-1.603.832-3.128 1.565-3.128 1.565 0 0-15.36 8.306-19.1 10.02-3.738 1.716-4.528-.105-2.976-.925"/></clipPath><clipPath><path d="m2125.1 1698.21c-1.573-.908-6.206-4.495-12.1-6.543-3.675-1.277-.796 1.659 1.895 3.19 1.627.925 3.184 1.755 3.184 1.755 0 0 1.68.848 5.513 2.815 3.833 1.966 3.082-.309 1.51-1.217"/></clipPath><clipPath><path d="m2110.76 1710.22c-1.588-.88-29.29-18.586-35.22-20.532-3.697-1.212-.767 1.673 1.951 3.157 1.642.897 3.214 1.7 3.214 1.7 0 0 24.704 15.02 28.57 16.918 3.867 1.899 3.076-.363 1.488-1.243"/></clipPath><clipPath><path d="m2086.95 1649.68c1.362-.121 6 2.292 2.851 3.02-1.302.3-3.619-2.95-2.851-3.02"/></clipPath><clipPath><path d="m2104.77 1713.48c-1.588-.88-29.29-18.587-35.22-20.532-3.697-1.212-.767 1.673 1.951 3.157 1.642.897 3.214 1.7 3.214 1.7 0 0 24.703 15.02 28.57 16.918 3.867 1.899 3.076-.363 1.488-1.243"/></clipPath><clipPath><path d="m2123.22 1670.62c1.362-.122 6 2.292 2.851 3.02-1.302.3-3.619-2.95-2.851-3.02"/></clipPath><clipPath><path d="m2050.95 1663.67c-1.362-.121-6 2.292-2.851 3.02 1.302.3 3.619-2.95 2.851-3.02"/></clipPath><clipPath><path d="m2098.77 1716.74c-1.588-.88-29.29-18.587-35.22-20.532-3.697-1.212-.767 1.673 1.951 3.157 1.642.897 3.214 1.7 3.214 1.7 0 0 24.703 15.02 28.57 16.918 3.867 1.899 3.076-.363 1.488-1.243"/></clipPath><clipPath><path d="m2071.21 1652.09c-1.362-.122-6 2.292-2.851 3.02 1.302.3 3.619-2.95 2.851-3.02"/></clipPath><clipPath><path d="m2151.23 1797.41c-1.756.982-32.392 20.726-38.952 22.894-4.088 1.352-.848-1.865 2.157-3.52 1.816-1 3.554-1.895 3.554-1.895 0 0 27.318-16.748 31.594-18.865 4.276-2.118 3.402.405 1.646 1.386"/></clipPath><clipPath><path d="m2202.14 2011.69c-.731.065 1.476 3.162 2.716 2.876 3-.693-1.419-2.992-2.716-2.876"/></clipPath><clipPath><path d="m2160.84 1743.35c-.07 2.023.935 38.67-.599 45.46-.956 4.23-2.022-.228-1.881-3.677.085-2.085.22-4.048.22-4.048 0 0-.167-32.24.235-37.02.402-4.786 2.096-2.732 2.026-.708"/></clipPath><clipPath><path d="m2221.43 2022.71c-.731.065 1.476 3.162 2.716 2.876 3-.693-1.419-2.992-2.716-2.876"/></clipPath><clipPath><path d="m2197.21 2056.2l1.586-.963c0 0 1.497-.765 3.062-1.619 2.589-1.414 5.38-4.162 1.858-3.01-1.587.521-4.811 2.226-8.66 4.427l2.153 1.162"/></clipPath><clipPath><path d="m2202.95 2059.29l1.564-.949c0 0 1.497-.765 3.062-1.619 2.589-1.414 5.38-4.162 1.858-3.01-1.584.519-4.798 2.219-8.637 4.414l2.152 1.162"/></clipPath><clipPath><path d="m2152.59 2029.34c-1.297-.116-5.719 2.183-2.716 2.876 1.24.286 3.447-2.811 2.716-2.876"/></clipPath><clipPath><path d="m2139.15 2049.09c.224-2.33 2.866-1.703 2.866-1.703 0 0 .225 12.697.053 17.447-.144 3.635-.372 8.606-.552 9.989-.483 3.711-2.561-1.376-2.441-2.934.068-.878.082-5.762.276-8.731l.118.077c.184-1.641-.468-12.611-.32-14.14"/></clipPath><clipPath><path d="m2187.14 2009.39c-1.297-.116-5.719 2.183-2.716 2.876 1.24.286 3.447-2.811 2.716-2.876"/></clipPath><clipPath><path d="m2139.75 2051.91c-2.178.858-2.819-1.781-2.819-1.781 0 0 11.211-5.965 15.522-7.968 3.304-1.522 7.838-3.575 9.151-4.04 3.526-1.255-.064 2.906-1.506 3.506-.813.338-5.171 2.543-7.905 3.719l.015-.14c-1.546.582-11.02 6.142-12.459 6.707"/></clipPath><clipPath><path d="m2222.17 2049.73c-1.479-.781-19.07-11.289-24.376-12.738-3.31-.903-2.158 1.269.368 2.58 1.527.793 2.979 1.491 2.979 1.491 0 0 14.632 7.913 18.19 9.548 3.561 1.635 4.313-.1 2.835-.881"/></clipPath><clipPath><path d="m2178.25 2025.04l-5.322-3.389-45.11 64.68c0 0 32.987 16.13 35.11 17 4.527 1.862 22.685-6.393 45.85-22.884.966-.687 1.768-6.714 1.505-13.652-.072-1.896-.246-3.896-.451-5.764l-1.666 1.078-30.596-16.511v-17.292l.677-3.264"/></clipPath><clipPath><path d="m2191.48 2053.1l1.609-.976c0 0 1.497-.765 3.062-1.619 2.589-1.414 5.38-4.162 1.858-3.01-1.59.522-4.824 2.232-8.683 4.441l2.154 1.162"/></clipPath><clipPath><path d="m1874.95 1862.54c-.045-.207-.082-.499-.358-.339-.16.106-20.563 11.865-20.563 11.865l-43.37 25.04c-.083.058-.143.091-.203.125-.174.1-.315.345-.315.546 0 .141.01 6.47.541 10.513.086.649.02 2.787.311 5.157l36.854 21.334 15.427-8.498-22.959-12.509c3.927-2.266 8.387-5.137 13.452-8.743 1.852-1.319 2.238-2.841 2.3-4.953.109-3.688.888-11.564 3.136-13.858 3.264-3.33 7.322-5.109 10.876-8.428 1.055-.837 2.022-1.914 2.848-3.184.469-.675.858-1.392 1.097-2.02.681-1.533 1.098-3.19 1.098-4.682 0-.459-.11-4.991-.168-7.374"/></clipPath><clipPath><path d="m2185.75 2050.01l1.631-.99c0 0 1.497-.765 3.062-1.619 2.589-1.414 5.38-4.162 1.858-3.01-1.593.523-4.836 2.239-8.706 4.454l2.154 1.163"/></clipPath><clipPath><path d="m1845.5 1908.87c0 0 5.125-2.37 6.06-2.759 1.664-.692 5.804-5.492 1.737-4.045-1.515.539-3.706 1.54-7.518 3.296-4.972 2.31-2.065 4.179-.282 3.509"/></clipPath><clipPath><path d="m1910.73 1882.1c-.045-.207-.082-.499-.358-.339-.136.089-25.865-14.875-33.712-19.367.038 1.829.087 5.71.087 6.574 0 1.872-.498 3.9-1.349 5.83-.368.947-.877 1.854-1.47 2.71-.981 1.504-2.166 2.853-3.467 3.895-1.22 1.136-2.561 2.227-3.906 3.257-1.141.873-7.081 5.727-7.696 6.792-1.366 2.367.804 13.277-4.914 17.348-4.59 3.267-8.714 5.953-12.42 8.142l36.21 18.346c3.79-2.305 7.658-4.852 11.292-7.439 1.852-1.319 2.238-2.841 2.3-4.953.109-3.688.711-11.903 3.135-13.858 3.63-2.927 7.322-5.109 10.876-8.428 1.056-.837 2.022-1.914 2.848-3.184.469-.675.859-1.392 1.097-2.02.681-1.533 1.098-3.19 1.098-4.682 0-.459.406-6.245.348-8.627"/></clipPath><clipPath><path d="m1907 1893.36c-1.772-.998-22.598-14.06-29.24-16.315-4.142-1.403-.897.566 2.136 2.249 1.833 1.017 3.588 1.929 3.588 1.929 0 0 17.498 10.06 21.818 12.217 4.319 2.161 3.473.918 1.701-.08"/></clipPath><clipPath><path d="m1886.19 1921.73c2.512.989 3.252-2.054 3.252-2.054 0 0-12.933-6.881-17.905-9.191-3.811-1.756-9.04-4.125-10.556-4.664-4.067-1.448.073 3.353 1.737 4.045.938.39 5.965 2.933 9.119 4.29l-.018-.162c1.783.671 12.717 7.086 14.371 7.737"/></clipPath><clipPath><path d="m2224.43 2029.93c-1.479-.781-19.07-11.289-24.376-12.738-3.31-.903-2.158 1.269.368 2.58 1.527.793 2.979 1.491 2.979 1.491 0 0 14.632 7.913 18.19 9.548 3.561 1.635 4.313-.1 2.835-.881"/></clipPath><clipPath><path d="m1823.62 1890.73c-1.496-.133-6.597 2.519-3.133 3.318 1.431.33 3.977-3.242 3.133-3.318"/></clipPath><clipPath><path d="m2168.1 2031.57c-1.205.696-1.903 2.234-.23 1.835l7.734-4.059c5.528-3.17 12.379-7.207 12.379-7.207 0 0 1.484-.791 3.033-1.672 2.564-1.459 5.307-4.255 1.806-3.039-5.617 1.951-23.22 13.278-24.721 14.14"/></clipPath><clipPath><path d="m1863.48 1867.72c-1.496-.134-6.597 2.519-3.133 3.318 1.431.33 3.977-3.242 3.133-3.318"/></clipPath><clipPath><path d="m1825.71 1906.22c-1.728.998-2.553 2.241 1.659.08 4.212-2.161 21.275-12.217 21.275-12.217 0 0 1.712-.912 3.499-1.929 2.957-1.683 6.122-3.652 2.083-2.249-6.48 2.251-26.788 15.317-28.516 16.314"/></clipPath><clipPath><path d="m2188.74 2035.8c1.497-.804 6.338-6.38 2.7-4.794-1.503.655-4.883 2.656-8.333 4.78-.03 1.354-.238 2.803-.354 3.789 2.842-1.594 5.144-3.322 5.987-3.775"/></clipPath><clipPath><path d="m2140.75 2074.96c-2.178.858-2.819-1.781-2.819-1.781 0 0 2.626-1.738 6.936-3.741 3.304-1.522 7.838-3.575 9.151-4.04 3.526-1.255-.064 2.906-1.506 3.506-.813.338-5.171 2.543-7.905 3.719l.015-.14c-1.546.581-2.439 1.916-3.873 2.48"/></clipPath><clipPath><path d="m2078.59 2026.22c6.465-.226 11.05-3.402 10.941-6.599-.112-3.197-4.91-6.05-11.375-5.82-6.465.226-11.05 3.402-10.941 6.599.112 3.197 4.91 6.05 11.375 5.82"/></clipPath><clipPath><path d="m2219.68 2046.39c.657.259 1.174.199 1.575-.01.569.463 1.69.134 1.69.134 0 0-.01-6.871-.186-9.423-.146-1.952-.367-4.619-.508-5.352-.38-1.968-1.748.93-1.645 1.762.058.469.13 3.104.301 4.694.181.544.07 3.5.027 5.584-2.431-1.285-7.215-3.799-10.851-5.623.333-2.213.819-5.561.96-7.186.162-1.95.36-4.62.335-5.366-.068-2-1.872.646-1.9 1.483-.016.472-.357 3.086-.436 4.683l.087-.037c.01.596-.554 3.445-.923 5.493-.452-.22-.865-.417-1.229-.586-3.304-1.522-7.838-3.575-9.151-4.04-3.526-1.255.064 2.906 1.506 3.506.813.338 5.171 2.543 7.905 3.719l-.015-.14c1.546.582 11.02 6.142 12.459 6.707"/></clipPath><clipPath><path d="m2092.57 2035.22c6.469 0 11.165-3.01 11.165-6.213 0-3.199-4.696-6.213-11.165-6.213-6.469 0-11.165 3.01-11.165 6.213 0 3.199 4.696 6.213 11.165 6.213"/></clipPath><clipPath><path d="m2093.73 1998.23c0 0 4.196-1.94 4.963-2.259 1.362-.567 4.752-4.497 1.422-3.312-1.24.442-3.035 1.261-6.155 2.698-4.071 1.891-1.691 3.422-.231 2.872"/></clipPath><clipPath><path d="m2144.08 1985.53c-1.451-.817-18.502-11.514-23.942-13.357-3.391-1.149-.734.463 1.749 1.841 1.501.833 2.938 1.58 2.938 1.58 0 0 14.326 8.233 17.863 10 3.536 1.769 2.844.751 1.393-.065"/></clipPath><clipPath><path d="m2097.75 2021.21c6.436 0 11.12-2.984 11.164-6.165l-11.438-6.259c-6.327.083-10.891 3.057-10.891 6.211 0 3.199 4.696 6.213 11.165 6.213"/></clipPath><clipPath><path d="m2198.64 1818.36c-1.756-.982-32.392-20.726-38.951-22.894-4.088-1.352-.848 1.865 2.157 3.52 1.816 1 3.555 1.895 3.555 1.895 0 0 27.318 16.748 31.594 18.865 4.276 2.118 3.402-.405 1.646-1.386"/></clipPath><clipPath><path d="m2047.95 2199.07c6.873-5.977 11.251-9.398 19.19-14.547 7.936-5.148 20.319-8.04 23.681-8.498 3.362-.462 25.506-14.203 32.992-21.661 7.486-7.458 20.278-11.403 25.67-17.994 5.392-6.591.927-2.839 6.811-3.542 5.885-.703 6.398-12.263 6.398-12.263l-.231-1.681c0 0-45.32 23.564-50.11 27.411-4.794 3.847-41.18 23.23-44.505 26.853-3.324 3.619-20.265 12.455-21.707 14.999-1.442 2.543-.475 12.845-.475 12.845l2.292-1.922"/></clipPath><clipPath><path d="m2095.34 2159.47c-2.568-.229-11.321 4.322-5.377 5.693 2.455.566 6.824-5.564 5.377-5.693"/></clipPath><clipPath><path d="m2147.34 2129.72c-2.568-.229-11.321 4.322-5.377 5.693 2.455.566 6.824-5.564 5.377-5.693"/></clipPath><clipPath><path d="m2072.09 2173.72c-2.568-.229-11.321 4.322-5.377 5.693 2.455.566 6.824-5.564 5.377-5.693"/></clipPath><clipPath><path d="m2127.04 2008.76c2.057.81 2.662-1.682 2.662-1.682 0 0-10.588-5.634-14.659-7.525-3.12-1.438-7.402-3.377-8.643-3.818-3.33-1.185.06 2.745 1.422 3.312.768.319 4.884 2.401 7.466 3.512l-.014-.133c1.46.549 10.412 5.801 11.766 6.334"/></clipPath><clipPath><path d="m1990.8 2030.78c2.53-.226 11.153 4.258 5.297 5.609-2.419.558-6.723-5.482-5.297-5.609"/></clipPath><clipPath><path d="m2077.52 1996.06c-1.415.817-2.09 1.835 1.358.065 3.448-1.769 17.419-10 17.419-10 0 0 1.401-.747 2.865-1.58 2.421-1.378 5.01-2.99 1.705-1.841-5.305 1.843-21.932 12.54-23.347 13.357"/></clipPath><clipPath><path d="m1967.89 2016.74c2.53-.226 11.153 4.258 5.297 5.609-2.419.558-6.723-5.482-5.297-5.609"/></clipPath><clipPath><path d="m2014.58 2055.75c-6.771-5.889-11.09-9.26-18.903-14.332-7.818-5.072-20.02-7.917-23.331-8.372-3.312-.455-25.13-13.994-32.504-21.342-7.376-7.348-19.978-11.235-25.29-17.728-5.313-6.494-.913-2.797-6.711-3.49-5.798-.693-6.304-12.08-6.304-12.08l.228-1.656c0 0 44.649 23.22 49.37 27.01 4.723 3.79 40.573 22.892 43.847 26.457 3.274 3.565 19.965 12.272 21.386 14.777 1.421 2.506.468 12.656.468 12.656l-2.258-1.894"/></clipPath><clipPath><path d="m1916.66 1987.43c2.53-.226 11.153 4.258 5.297 5.609-2.419.558-6.723-5.482-5.297-5.609"/></clipPath><clipPath><path d="m1848.48 2090.74c1.513-.799 30.26-17.758 35.697-19.241 3.386-.924 2.208 1.298-.377 2.64-1.562.811-3.048 1.525-3.048 1.525 0 0-25.729 14.305-29.372 15.977-3.643 1.672-4.413-.103-2.9-.902"/></clipPath><clipPath><path d="m2108.44 1964.54c-1.225-.109-5.401 2.062-2.565 2.716 1.171.27 3.256-2.655 2.565-2.716"/></clipPath><clipPath><path d="m1969.95 2154.71c1.513-.799 30.26-17.758 35.697-19.241 3.386-.924 2.208 1.298-.377 2.64-1.562.811-3.048 1.526-3.048 1.526 0 0-25.729 14.305-29.372 15.977-3.643 1.672-4.413-.103-2.9-.902"/></clipPath><clipPath><path d="m2075.81 1983.38c-1.225-.109-5.401 2.062-2.565 2.716 1.171.27 3.256-2.655 2.565-2.716"/></clipPath><clipPath><path d="m2147.13 1976.31c-.037-.169-.067-.408-.293-.278-.111.073-21.18-12.178-27.601-15.857.031 1.498.072 4.675.072 5.382 0 1.533-.407 3.193-1.104 4.774-.301.775-.718 1.518-1.203 2.219-.803 1.231-1.773 2.336-2.838 3.189-.999.93-2.097 1.823-3.198 2.666-.934.715-5.797 4.689-6.301 5.561-1.119 1.938.658 10.87-4.02 14.203-3.758 2.675-7.134 4.873-10.168 6.666l29.645 15.02c3.103-1.887 6.27-3.973 9.245-6.091 1.517-1.08 1.832-2.326 1.883-4.055.089-3.02.582-9.745 2.567-11.345 2.972-2.397 5.995-4.183 8.904-6.9.864-.686 1.656-1.567 2.332-2.607.384-.552.703-1.14.898-1.65.557-1.255.899-2.612.899-3.833 0-.376.332-5.113.285-7.06"/></clipPath><clipPath><path d="m2010.55 2092.51c1.233.712 1.947 2.286.236 1.877l-56.33-32.17c-5.655-3.243-12.664-7.373-12.664-7.373 0 0-1.518-.809-3.103-1.711-2.623-1.492-5.429-4.354-1.847-3.109 5.747 1.996 72.18 41.599 73.71 42.484"/></clipPath><clipPath><path d="m2117.83 1960.29c-.037-.169-.067-.408-.293-.278-.131.086-16.836 9.714-16.836 9.714l-35.512 20.504c-.068.047-.117.074-.166.102-.142.082-.258.282-.258.447 0 .115.01 5.297.443 8.607.07.531.017 2.281.255 4.223l30.17 17.466 12.631-6.958-18.798-10.241c3.215-1.856 6.867-4.206 11.01-7.158 1.517-1.08 1.832-2.326 1.883-4.055.089-3.02.727-9.468 2.567-11.345 2.672-2.727 5.995-4.183 8.904-6.9.864-.686 1.656-1.567 2.332-2.607.384-.552.703-1.14.898-1.651.557-1.255.899-2.612.899-3.833 0-.376-.09-4.086-.138-6.04"/></clipPath></defs><g transform="translate(0-977.36)"><path d="m46.545 1034.52l.902 8.721-6.917 6.616h-27.367l-9.323-3.91-1.804-8.721 6.917-11.428c17.638 11.336 25.904-5.67 37.592 8.721" fill="#ffdb00"/><path d="m16.998 997.89v19l-12.737 15.464c-2.098 2.547-2.717 6.185-1.864 9.379.047.175.095.349.151.521.042.13.086.26.133.388.015.042.031.085.046.127.054.141.108.279.168.417 1.604 3.822 5.319 6.563 9.715 6.803l.006.01h.046c.191.01.386.011.579.011.193 0 .382 0 .573-.011h6.369 9.136 6.369c.191.01.38.011.573.011.193 0 .388 0 .579-.011h.046l.006-.01c4.396-.24 8.111-2.981 9.715-6.803.06-.138.114-.276.168-.417.016-.042.031-.085.046-.127.047-.128.091-.258.133-.388.056-.172.104-.346.151-.521.853-3.195.234-6.832-1.864-9.379l-12.737-15.464v-19h-3.184-9.136-3.184z" fill="none" stroke="#ffffff" stroke-width="3.705"/><path fill="#ffffff" color="#000" d="m12.699 995.11h24.1v3.554h-24.1z"/><path d="m31.03 980.33c-1.23 0-2.219.989-2.219 2.219 0 1.23.989 2.25 2.219 2.25 1.23 0 2.25-1.02 2.25-2.25 0-1.23-1.02-2.219-2.25-2.219m-6.437 5.656c-2.324 0-4.219 1.864-4.219 4.188 0 2.324 1.895 4.219 4.219 4.219 2.324 0 4.188-1.895 4.188-4.219 0-2.324-1.864-4.188-4.188-4.188m4.844 40.531c-1.977 0-3.594 1.585-3.594 3.563 0 1.977 1.617 3.594 3.594 3.594 1.977 0 3.562-1.617 3.562-3.594 0-1.977-1.585-3.563-3.563-3.563m5.531 10.875c-1.056 0-1.906.85-1.906 1.906 0 1.056.85 1.906 1.906 1.906 1.056 0 1.938-.85 1.938-1.906 0-1.056-.881-1.906-1.938-1.906" fill="#f2b827"/><g transform="translate(-12.75)" fill="#fef47d"><use transform="matrix(.35968 0 0 .35968-127.77 955.5)" xlink:href="#0"/><use transform="matrix(.56521 0 0 .56521-224.03 924.55)" xlink:href="#0"/><use transform="matrix(-.56521 0 0-.56521 288 1129.99)" xlink:href="#0"/><use transform="matrix(-.44047 0 0 .44047 228.33 892.54)" xlink:href="#0"/></g></g></svg>
